<?xml version="1.0" encoding="utf-8"?>
<!-- Generator: Adobe Illustrator 19.2.0, SVG Export Plug-In . SVG Version: 6.00 Build 0)  -->
<svg version="1.1" id="Layer_1" xmlns="http://www.w3.org/2000/svg" xmlns:xlink="http://www.w3.org/1999/xlink" x="0px" y="0px"
	 viewBox="0 0 24 24" style="enable-background:new 0 0 24 24;" xml:space="preserve">
<path d="M0.1,15.2c0-1.1,0.3-2,1-2.8c0.7-0.8,1.5-1.4,2.6-1.6c0.3-1.3,0.9-2.3,1.9-3.1S7.7,6.5,9,6.5c1.3,0,2.4,0.4,3.4,1.2
	s1.6,1.8,1.9,3h0.3c1.3,0,2.3,0.4,3.2,1.3s1.3,2,1.3,3.2c0,1.3-0.4,2.3-1.3,3.2s-2,1.3-3.2,1.3H4.7c-0.6,0-1.2-0.1-1.8-0.4
	c-0.6-0.2-1.1-0.6-1.5-1c-0.4-0.4-0.7-0.9-1-1.5S0.1,15.8,0.1,15.2L0.1,15.2z M1.7,15.2c0,0.8,0.3,1.5,0.9,2.1
	c0.6,0.6,1.3,0.9,2.1,0.9h9.9c0.8,0,1.5-0.3,2.1-0.9c0.6-0.6,0.9-1.3,0.9-2.1s-0.3-1.5-0.9-2.1c-0.6-0.6-1.3-0.9-2.1-0.9h-1.5
	c-0.1,0-0.2-0.1-0.2-0.2l-0.1-0.5c-0.1-1-0.5-1.8-1.3-2.5c-0.7-0.7-1.6-1-2.6-1s-1.9,0.3-2.6,1c-0.7,0.7-1.2,1.5-1.3,2.5L5,12
	c0,0.1-0.1,0.2-0.2,0.2l-0.5,0.1c-0.8,0.1-1.4,0.4-1.9,1S1.7,14.5,1.7,15.2L1.7,15.2z M11.1,5.9C11,6,11.1,6.1,11.2,6.1
	c0.5,0.2,0.8,0.4,1.2,0.6c0.1,0,0.2,0,0.2,0c0.6-0.6,1.4-0.9,2.3-0.9s1.6,0.3,2.2,0.9c0.6,0.6,1,1.3,1.1,2.1l0.1,0.7h1.5
	c0.7,0,1.3,0.2,1.8,0.7c0.5,0.5,0.8,1.1,0.8,1.8c0,0.6-0.2,1.2-0.7,1.7c-0.4,0.5-1,0.7-1.6,0.8c-0.1,0-0.2,0.1-0.2,0.2v1.2
	c0,0.1,0.1,0.2,0.2,0.2c1.1-0.1,2-0.5,2.7-1.3c0.7-0.8,1.1-1.7,1.1-2.8c0-1.1-0.4-2.1-1.2-2.9c-0.8-0.8-1.8-1.2-2.9-1.2h-0.2
	c-0.3-1.1-0.9-2-1.8-2.6s-1.9-1-3-1C13.4,4.2,12.1,4.8,11.1,5.9L11.1,5.9z"/>
</svg>
