<?xml version="1.0" encoding="utf-8"?>
<!-- Generator: Adobe Illustrator 19.2.0, SVG Export Plug-In . SVG Version: 6.00 Build 0)  -->
<svg version="1.1" id="Layer_1" xmlns="http://www.w3.org/2000/svg" xmlns:xlink="http://www.w3.org/1999/xlink" x="0px" y="0px"
	 viewBox="0 0 24 24" style="enable-background:new 0 0 24 24;" xml:space="preserve">
<path d="M0,13.4c0,0.3,0.1,0.5,0.3,0.7c0.2,0.2,0.4,0.3,0.7,0.3h1.7c0.3,0,0.5-0.1,0.7-0.3c0.2-0.2,0.3-0.4,0.3-0.7
	c0-0.3-0.1-0.6-0.3-0.8c-0.2-0.2-0.4-0.3-0.7-0.3H1c-0.3,0-0.5,0.1-0.7,0.3C0.1,12.9,0,13.1,0,13.4z M1.8,20c0,1,0.4,1.9,1.1,2.7
	c0.7,0.7,1.6,1.1,2.5,1.1h6.9c1,0,1.8-0.4,2.5-1.1c0.7-0.7,1-1.6,1-2.7c0-0.5-0.1-0.9-0.2-1.3c0.8-0.6,1.5-1.3,2-2.2s0.7-1.9,0.7-3
	c0-0.9-0.2-1.7-0.5-2.5c-0.3-0.8-0.8-1.5-1.3-2c-0.5-0.6-1.2-1-1.9-1.4c-0.7-0.3-1.5-0.5-2.3-0.5c-1.1,0-2.1,0.3-3,0.9
	s-1.7,1.3-2.2,2.3c-0.5,1-0.8,2-0.8,3.2v0.4c-1,0.6-1.7,1.5-2,2.6c-0.8,0.3-1.4,0.7-1.8,1.3C2,18.4,1.8,19.2,1.8,20L1.8,20z M3.4,5
	c0,0.3,0.1,0.5,0.3,0.7l1.6,1.8c0.5,0.4,0.9,0.4,1.4,0c0.2-0.2,0.3-0.4,0.3-0.7c0-0.3-0.1-0.5-0.3-0.7L5,4.3C4.8,4.1,4.5,4,4.3,4
	C4,4,3.8,4.1,3.6,4.3S3.4,4.7,3.4,5L3.4,5z M3.8,20c0-0.4,0.1-0.8,0.4-1.1s0.6-0.5,1-0.5l0.6-0.1C6,18.2,6,18.1,6,18l0.1-0.6
	c0.1-0.6,0.3-1.1,0.7-1.5c0.4-0.4,0.9-0.6,1.5-0.6c0.6,0,1.1,0.2,1.5,0.6c0.4,0.4,0.7,0.9,0.8,1.5l0.1,0.7c0.1,0.2,0.1,0.2,0.2,0.2
	h1.3c0.4,0,0.8,0.2,1.1,0.5s0.5,0.7,0.5,1.2c0,0.5-0.2,0.9-0.5,1.2c-0.3,0.3-0.7,0.5-1.1,0.5H5.4c-0.5,0-0.8-0.2-1.1-0.5
	C3.9,20.9,3.8,20.5,3.8,20L3.8,20z M8.2,13.2c0.1-1.2,0.5-2.1,1.3-2.9c0.8-0.8,1.7-1.2,2.8-1.2c1.1,0,2.1,0.4,2.9,1.3
	c0.8,0.8,1.2,1.9,1.2,3.1c0,0.7-0.2,1.4-0.5,2.1c-0.3,0.6-0.8,1.1-1.4,1.5c-0.6-0.5-1.3-0.8-2-0.8c-0.3-0.9-0.8-1.7-1.5-2.2
	s-1.6-0.8-2.5-0.8L8.2,13.2L8.2,13.2z M11.3,4c0,0.3,0.1,0.5,0.3,0.7S12,5,12.3,5c0.3,0,0.5-0.1,0.7-0.3c0.2-0.2,0.3-0.4,0.3-0.7
	V1.5c0-0.3-0.1-0.5-0.3-0.7c-0.2-0.2-0.4-0.3-0.7-0.3c-0.3,0-0.5,0.1-0.7,0.3c-0.2,0.2-0.3,0.4-0.3,0.7C11.3,1.5,11.3,4,11.3,4z
	 M17.7,20.1c0,0.3,0.1,0.5,0.3,0.7l1.7,1.7c0.4,0.4,0.9,0.4,1.4,0c0.2-0.2,0.3-0.4,0.3-0.7c0-0.3-0.1-0.5-0.3-0.7l-1.7-1.8
	c-0.2-0.2-0.4-0.3-0.7-0.3s-0.5,0.1-0.7,0.3C17.8,19.6,17.7,19.8,17.7,20.1L17.7,20.1z M17.7,6.7c0,0.3,0.1,0.6,0.3,0.8
	c0.2,0.2,0.4,0.3,0.7,0.3c0.3,0,0.5-0.1,0.7-0.3L21,5.7c0.2-0.2,0.3-0.4,0.3-0.7c0-0.3-0.1-0.5-0.3-0.7S20.6,4,20.3,4
	c-0.3,0-0.5,0.1-0.7,0.3L18,6C17.8,6.2,17.7,6.5,17.7,6.7z M20.3,13.4c0,0.3,0.1,0.5,0.3,0.7c0.2,0.2,0.4,0.3,0.7,0.3H23
	c0.3,0,0.5-0.1,0.7-0.3c0.2-0.2,0.3-0.4,0.3-0.7c0-0.3-0.1-0.6-0.3-0.8c-0.2-0.2-0.4-0.3-0.7-0.3h-1.7c-0.3,0-0.5,0.1-0.7,0.3
	C20.4,12.9,20.3,13.1,20.3,13.4z"/>
</svg>
