<?xml version="1.0" encoding="utf-8"?>
<!-- Generator: Adobe Illustrator 19.2.0, SVG Export Plug-In . SVG Version: 6.00 Build 0)  -->
<svg version="1.1" id="Layer_1" xmlns="http://www.w3.org/2000/svg" xmlns:xlink="http://www.w3.org/1999/xlink" x="0px" y="0px"
	 viewBox="0 0 24 24" style="enable-background:new 0 0 24 24;" xml:space="preserve">
<path d="M0.1,14.5c0,0.8,0.2,1.5,0.6,2.1c0.4,0.7,0.9,1.2,1.5,1.6c0.6,0.4,1.4,0.6,2.1,0.6c0.1,0,0.1,0,0.1-0.1v-1.2
	c0-0.1,0-0.2-0.1-0.2c-0.8,0-1.4-0.3-1.9-0.9c-0.5-0.6-0.8-1.2-0.8-2c0-0.7,0.3-1.4,0.8-1.9c0.5-0.5,1.1-0.9,1.9-0.9l0.5,0
	c0.1,0,0.2-0.1,0.2-0.2l0.1-0.4C5,10,5.4,9.2,6.1,8.5c0.7-0.6,1.6-1,2.5-1c1,0,1.8,0.3,2.5,1c0.7,0.6,1.1,1.4,1.2,2.4l0.1,0.5
	c0,0.1,0,0.1,0.1,0.1H14c0.8,0,1.5,0.3,2,0.9c0.6,0.6,0.8,1.2,0.8,2c0,0.7-0.3,1.4-0.8,2c-0.5,0.6-1.2,0.9-1.9,0.9
	c-0.1,0-0.2,0.1-0.2,0.2v1.2c0,0.1,0.1,0.1,0.2,0.1c1.2,0,2.2-0.5,3-1.3s1.2-1.9,1.2-3c0-0.7-0.1-1.3-0.4-1.8c0.7-0.8,1-1.8,1-2.9
	c0-0.8-0.2-1.6-0.6-2.3c-0.4-0.7-1-1.3-1.7-1.7c-0.7-0.4-1.5-0.6-2.3-0.6c-1.4,0-2.5,0.5-3.4,1.5c-0.7-0.4-1.5-0.6-2.4-0.6
	c-1.2,0-2.3,0.4-3.3,1.2s-1.6,1.8-1.9,3c-1,0.2-1.8,0.8-2.4,1.6C0.4,12.5,0.1,13.4,0.1,14.5L0.1,14.5z M5.7,18
	c0,0.2,0.1,0.4,0.2,0.5c0.1,0.1,0.3,0.2,0.5,0.2c0.2,0,0.4-0.1,0.5-0.2c0.1-0.1,0.2-0.3,0.2-0.5c0-0.2-0.1-0.4-0.2-0.5
	c-0.1-0.1-0.3-0.2-0.5-0.2c-0.2,0-0.4,0.1-0.5,0.2S5.7,17.8,5.7,18z M5.7,21.2c0,0.2,0.1,0.4,0.2,0.5C6.1,21.9,6.3,22,6.5,22
	c0.2,0,0.4-0.1,0.5-0.2s0.2-0.3,0.2-0.5c0-0.2-0.1-0.4-0.2-0.5c-0.1-0.1-0.3-0.2-0.5-0.2s-0.4,0.1-0.5,0.2C5.8,20.9,5.7,21,5.7,21.2
	L5.7,21.2z M7.5,3.6c0,0.2,0.1,0.4,0.2,0.5l0.6,0.6c0.1,0.1,0.3,0.2,0.5,0.2c0.2,0,0.4,0,0.5-0.2c0.2-0.2,0.3-0.3,0.3-0.6
	c0-0.2-0.1-0.4-0.2-0.6L8.8,3.1C8.7,2.9,8.5,2.9,8.3,2.9c-0.2,0-0.4,0.1-0.6,0.2C7.6,3.2,7.5,3.4,7.5,3.6z M8.5,19.7
	c0,0.2,0.1,0.4,0.2,0.5c0.1,0.1,0.3,0.2,0.5,0.2c0.2,0,0.4-0.1,0.5-0.2c0.1-0.1,0.2-0.3,0.2-0.5c0-0.2-0.1-0.4-0.2-0.5
	C9.7,19.1,9.5,19,9.3,19c-0.2,0-0.4,0.1-0.5,0.2C8.6,19.4,8.5,19.5,8.5,19.7z M8.5,16.6c0,0.2,0.1,0.4,0.2,0.5
	c0.1,0.1,0.3,0.2,0.5,0.2c0.2,0,0.4-0.1,0.5-0.2c0.1-0.1,0.2-0.3,0.2-0.5c0-0.2-0.1-0.4-0.2-0.5c-0.1-0.1-0.3-0.2-0.5-0.2
	c-0.2,0-0.4,0.1-0.5,0.2C8.6,16.2,8.5,16.3,8.5,16.6L8.5,16.6z M8.5,23c0,0.2,0.1,0.4,0.2,0.5c0.1,0.1,0.3,0.2,0.5,0.2
	c0.2,0,0.4-0.1,0.5-0.2C10,23.4,10,23.2,10,23s-0.1-0.4-0.2-0.5c-0.1-0.1-0.3-0.2-0.5-0.2c-0.2,0-0.4,0.1-0.5,0.2
	C8.6,22.6,8.5,22.8,8.5,23z M11.4,18c0,0.2,0.1,0.4,0.2,0.5c0.1,0.1,0.3,0.2,0.5,0.2c0.2,0,0.4-0.1,0.5-0.2c0.1-0.1,0.2-0.3,0.2-0.5
	c0-0.2-0.1-0.4-0.2-0.5c-0.1-0.1-0.3-0.2-0.5-0.2c-0.2,0-0.4,0.1-0.5,0.2C11.5,17.7,11.4,17.8,11.4,18z M11.4,21.2
	c0,0.2,0.1,0.4,0.2,0.5c0.2,0.1,0.3,0.2,0.5,0.2c0.2,0,0.4-0.1,0.5-0.2c0.1-0.1,0.2-0.3,0.2-0.5c0-0.2-0.1-0.4-0.2-0.5
	c-0.1-0.1-0.3-0.2-0.5-0.2c-0.2,0-0.4,0.1-0.5,0.2C11.5,20.9,11.4,21,11.4,21.2z M12.3,7.5c0.6-0.6,1.3-0.9,2.2-0.9
	c0.9,0,1.6,0.3,2.2,0.9c0.6,0.6,0.9,1.3,0.9,2.2c0,0.6-0.1,1.1-0.4,1.6c-0.8-0.8-1.9-1.3-3.1-1.3h-0.3C13.5,9.1,13,8.2,12.3,7.5
	L12.3,7.5z M13.7,2.9c0,0.2,0.1,0.4,0.2,0.5c0.1,0.1,0.3,0.2,0.5,0.2c0.2,0,0.4-0.1,0.5-0.2c0.1-0.1,0.2-0.3,0.2-0.5V1.1
	c0-0.2-0.1-0.4-0.2-0.5s-0.3-0.2-0.5-0.2c-0.2,0-0.4,0.1-0.5,0.2c-0.2,0.2-0.2,0.3-0.2,0.5V2.9z M18.6,4.9c0,0.2,0.1,0.4,0.2,0.5
	c0.1,0.1,0.3,0.2,0.5,0.2s0.4-0.1,0.6-0.2l1.3-1.3c0.2-0.2,0.2-0.3,0.2-0.5c0-0.2-0.1-0.4-0.2-0.5c-0.2-0.1-0.3-0.2-0.5-0.2
	c-0.2,0-0.4,0.1-0.5,0.2l-1.3,1.3C18.6,4.5,18.6,4.7,18.6,4.9L18.6,4.9z M19.3,15.3c0,0.2,0.1,0.4,0.2,0.5l0.6,0.6
	c0.2,0.1,0.4,0.2,0.6,0.2c0.2,0,0.3-0.1,0.5-0.2c0.1-0.2,0.2-0.3,0.2-0.5c0-0.2-0.1-0.4-0.2-0.5l-0.5-0.6c-0.2-0.1-0.3-0.2-0.5-0.2
	c-0.2,0-0.4,0.1-0.5,0.2C19.3,14.9,19.3,15.1,19.3,15.3L19.3,15.3z M20.6,9.7c0,0.2,0.1,0.4,0.2,0.5c0.1,0.2,0.3,0.2,0.5,0.2h1.8
	c0.2,0,0.4-0.1,0.5-0.2s0.2-0.3,0.2-0.5c0-0.2-0.1-0.4-0.2-0.5S23.3,9,23.1,9h-1.8c-0.2,0-0.4,0.1-0.5,0.2
	C20.6,9.4,20.6,9.5,20.6,9.7z"/>
</svg>
