<?xml version="1.0" encoding="utf-8"?>
<!-- Generator: Adobe Illustrator 19.2.0, SVG Export Plug-In . SVG Version: 6.00 Build 0)  -->
<svg version="1.1" id="Layer_1" xmlns="http://www.w3.org/2000/svg" xmlns:xlink="http://www.w3.org/1999/xlink" x="0px" y="0px"
	 viewBox="0 0 24 24" style="enable-background:new 0 0 24 24;" xml:space="preserve">
<path d="M0,16.6c0,0.8,0.2,1.5,0.6,2.2c0.4,0.7,0.9,1.2,1.6,1.6S3.6,21,4.4,21h9.6c0.8,0,1.5-0.2,2.2-0.6c0.7-0.4,1.2-0.9,1.6-1.6
	c0.4-0.7,0.6-1.4,0.6-2.2c0-0.6-0.1-1.2-0.4-1.8c0.7-0.8,1-1.8,1-2.9c0-0.6-0.1-1.2-0.4-1.8s-0.6-1.1-1-1.5c-0.4-0.4-0.9-0.7-1.5-1
	c-0.6-0.2-1.2-0.4-1.8-0.4c-1.3,0-2.5,0.5-3.5,1.6c-0.7-0.4-1.5-0.6-2.4-0.6c-1.3,0-2.4,0.4-3.3,1.2s-1.6,1.8-1.9,3
	c-1,0.2-1.8,0.7-2.4,1.5C0.4,14.7,0,15.6,0,16.6L0,16.6z M1.6,16.6c0-0.7,0.2-1.4,0.7-1.9c0.5-0.5,1.1-0.9,1.9-0.9l0.4,0
	c0.1,0,0.2-0.1,0.2-0.2l0.1-0.5c0.1-1,0.5-1.8,1.3-2.4s1.5-1,2.5-1c1,0,1.8,0.3,2.6,1c0.7,0.7,1.1,1.5,1.2,2.4l0.1,0.5
	c0,0.1,0.1,0.1,0.2,0.1h1.4c0.8,0,1.5,0.3,2,0.9c0.6,0.6,0.9,1.2,0.9,2c0,0.8-0.3,1.5-0.8,2.1c-0.6,0.6-1.2,0.9-2,0.9H4.4
	c-0.8,0-1.5-0.3-2-0.9C1.8,18.1,1.6,17.4,1.6,16.6L1.6,16.6z M7.5,5.7c0,0.2,0.1,0.4,0.2,0.6l0.6,0.6C8.5,7,8.7,7.1,8.9,7.1
	c0.2,0,0.3-0.1,0.5-0.2c0.1-0.2,0.2-0.3,0.2-0.6c0-0.2-0.1-0.4-0.2-0.5L8.8,5.2C8.7,5,8.5,4.9,8.3,4.9C8.1,4.9,7.9,5,7.8,5.2
	C7.6,5.3,7.5,5.5,7.5,5.7L7.5,5.7z M12.3,9.6c0.6-0.6,1.3-0.9,2.2-0.9c0.9,0,1.6,0.3,2.2,0.9c0.6,0.6,0.9,1.4,0.9,2.2
	c0,0.6-0.2,1.1-0.5,1.6c-0.9-0.9-1.9-1.3-3.1-1.3h-0.3C13.6,11.3,13.1,10.4,12.3,9.6z M13.7,4.9c0,0.2,0.1,0.4,0.2,0.6
	c0.1,0.1,0.3,0.2,0.5,0.2c0.2,0,0.4-0.1,0.6-0.2c0.1-0.1,0.2-0.3,0.2-0.6V3.1c0-0.2-0.1-0.4-0.2-0.5c-0.1-0.1-0.3-0.2-0.5-0.2
	c-0.2,0-0.4,0.1-0.5,0.2c-0.1,0.1-0.2,0.3-0.2,0.5C13.7,3.1,13.7,4.9,13.7,4.9z M18.6,7c0,0.2,0.1,0.4,0.2,0.6
	c0.2,0.1,0.4,0.2,0.6,0.2c0.2,0,0.3-0.1,0.5-0.2l1.3-1.3c0.1-0.2,0.2-0.4,0.2-0.6c0-0.2-0.1-0.4-0.2-0.5C21,5,20.9,4.9,20.7,4.9
	c-0.2,0-0.4,0.1-0.5,0.2l-1.3,1.3C18.7,6.6,18.6,6.8,18.6,7L18.6,7z M19.3,17.5c0,0.2,0.1,0.4,0.2,0.6l0.6,0.6
	c0.1,0.1,0.3,0.2,0.5,0.2s0.4-0.1,0.5-0.2c0.1-0.1,0.2-0.3,0.2-0.6c0-0.2-0.1-0.4-0.2-0.5L20.6,17c-0.1-0.1-0.3-0.2-0.5-0.2
	c-0.2,0-0.4,0.1-0.5,0.2C19.4,17.1,19.3,17.3,19.3,17.5L19.3,17.5z M20.6,11.9c0,0.2,0.1,0.4,0.2,0.5c0.1,0.1,0.3,0.2,0.5,0.2h1.8
	c0.2,0,0.4-0.1,0.5-0.2c0.1-0.1,0.2-0.3,0.2-0.5c0-0.2-0.1-0.4-0.2-0.5s-0.3-0.2-0.5-0.2h-1.8c-0.2,0-0.4,0.1-0.5,0.2
	C20.7,11.5,20.6,11.7,20.6,11.9L20.6,11.9z"/>
</svg>
