<?xml version="1.0" encoding="utf-8"?>
<!-- Generator: Adobe Illustrator 19.2.0, SVG Export Plug-In . SVG Version: 6.00 Build 0)  -->
<svg version="1.1" id="Layer_1" xmlns="http://www.w3.org/2000/svg" xmlns:xlink="http://www.w3.org/1999/xlink" x="0px" y="0px"
	 viewBox="0 0 24 24" style="enable-background:new 0 0 24 24;" xml:space="preserve">
<path d="M0.1,12c0-0.3,0.1-0.5,0.3-0.7C0.6,11.1,0.8,11,1,11h2.3c0.3,0,0.5,0.1,0.6,0.3c0.2,0.2,0.3,0.4,0.3,0.7
	c0,0.3-0.1,0.5-0.3,0.7C3.8,12.9,3.6,13,3.3,13H1c-0.3,0-0.5-0.1-0.7-0.3C0.2,12.5,0.1,12.3,0.1,12z M3.3,19.8
	c0-0.3,0.1-0.5,0.3-0.7l1.7-1.6c0.2-0.2,0.4-0.3,0.7-0.3c0.3,0,0.5,0.1,0.7,0.3c0.2,0.2,0.3,0.4,0.3,0.6c0,0.3-0.1,0.5-0.3,0.7
	l-1.6,1.6c-0.5,0.4-0.9,0.4-1.4,0C3.4,20.2,3.3,20,3.3,19.8z M3.3,4.2c0-0.3,0.1-0.5,0.3-0.7C3.8,3.4,4,3.3,4.3,3.3
	c0.2,0,0.5,0.1,0.7,0.3l1.6,1.7c0.2,0.2,0.3,0.4,0.3,0.7c0,0.3-0.1,0.5-0.3,0.7C6.4,6.7,6.1,6.8,5.9,6.8c-0.3,0-0.5-0.1-0.7-0.3
	L3.6,4.9C3.4,4.7,3.3,4.5,3.3,4.2z M6.1,12c0-1,0.3-2,0.8-2.9s1.2-1.6,2.1-2.1C10,6.4,11,6.1,12,6.1c0.8,0,1.5,0.2,2.3,0.5
	c0.7,0.3,1.3,0.7,1.9,1.3c0.5,0.5,0.9,1.1,1.2,1.9c0.3,0.7,0.5,1.5,0.5,2.3c0,1.1-0.3,2-0.8,2.9c-0.5,0.9-1.2,1.6-2.1,2.1
	C14,17.6,13,17.8,12,17.8c-1.1,0-2-0.3-2.9-0.8c-0.9-0.5-1.6-1.2-2.1-2.1C6.4,14,6.1,13,6.1,12z M8.1,12c0,1.1,0.4,2,1.2,2.8
	C10,15.6,10.9,16,12,16c1.1,0,2-0.4,2.8-1.2C15.6,14,16,13.1,16,12c0-1.1-0.4-2-1.2-2.8C14,8.5,13.1,8.1,12,8.1
	c-1.1,0-2,0.4-2.8,1.1C8.4,10,8.1,10.9,8.1,12z M11,20.7c0-0.3,0.1-0.5,0.3-0.7c0.2-0.2,0.4-0.3,0.7-0.3c0.3,0,0.5,0.1,0.7,0.3
	c0.2,0.2,0.3,0.4,0.3,0.7v2.2c0,0.3-0.1,0.5-0.3,0.7c-0.2,0.2-0.4,0.3-0.7,0.3s-0.5-0.1-0.7-0.3c-0.2-0.2-0.3-0.4-0.3-0.7L11,20.7
	L11,20.7z M11,3.3V1c0-0.3,0.1-0.5,0.3-0.7c0.2-0.2,0.4-0.3,0.7-0.3c0.3,0,0.5,0.1,0.7,0.3C12.9,0.6,13,0.8,13,1v2.3
	c0,0.3-0.1,0.5-0.3,0.6c-0.2,0.2-0.4,0.3-0.7,0.3S11.5,4.1,11.3,4C11.1,3.8,11,3.6,11,3.3z M17.2,18.1c0-0.3,0.1-0.5,0.3-0.6
	c0.2-0.2,0.4-0.3,0.6-0.3c0.3,0,0.5,0.1,0.7,0.3l1.6,1.6c0.2,0.2,0.3,0.4,0.3,0.7c0,0.3-0.1,0.5-0.3,0.7c-0.4,0.4-0.9,0.4-1.3,0
	l-1.6-1.6C17.3,18.6,17.2,18.4,17.2,18.1L17.2,18.1z M17.2,5.9c0-0.3,0.1-0.5,0.3-0.7l1.6-1.7c0.2-0.2,0.4-0.3,0.7-0.3
	c0.3,0,0.5,0.1,0.7,0.3c0.2,0.2,0.3,0.4,0.3,0.7c0,0.3-0.1,0.5-0.3,0.7l-1.6,1.6c-0.2,0.2-0.4,0.3-0.7,0.3c-0.3,0-0.5-0.1-0.6-0.3
	C17.3,6.4,17.2,6.1,17.2,5.9L17.2,5.9z M19.8,12c0-0.3,0.1-0.5,0.3-0.7c0.2-0.2,0.4-0.3,0.6-0.3H23c0.3,0,0.5,0.1,0.7,0.3
	c0.2,0.2,0.3,0.4,0.3,0.7c0,0.3-0.1,0.5-0.3,0.7S23.2,13,23,13h-2.3c-0.3,0-0.5-0.1-0.7-0.3C19.9,12.5,19.8,12.3,19.8,12z"/>
</svg>
