<?xml version="1.0" encoding="utf-8"?>
<!-- Generator: Adobe Illustrator 19.2.0, SVG Export Plug-In . SVG Version: 6.00 Build 0)  -->
<svg version="1.1" id="Layer_1" xmlns="http://www.w3.org/2000/svg" xmlns:xlink="http://www.w3.org/1999/xlink" x="0px" y="0px"
	 viewBox="0 0 24 24" style="enable-background:new 0 0 24 24;" xml:space="preserve">
<path d="M0.1,14.3c0,1,0.3,1.9,0.9,2.6c0.6,0.8,1.3,1.3,2.3,1.6L2.7,20c0,0.1,0,0.2,0.1,0.2h1.9l-1.3,3.7h0.3l3.8-5c0,0,0-0.1,0-0.1
	c0,0-0.1-0.1-0.1-0.1H5.5l2.2-4.1c0.1-0.1,0-0.2-0.1-0.2H5c-0.1,0-0.2,0-0.2,0.1l-0.9,2.5c-0.6-0.2-1.2-0.5-1.6-1
	c-0.4-0.5-0.6-1.1-0.6-1.8c0-0.7,0.2-1.4,0.7-1.9s1.1-0.9,1.9-0.9l0.4,0c0.1,0,0.2,0,0.2-0.1l0.1-0.5C5,9.8,5.4,9,6.2,8.3
	c0.7-0.6,1.6-1,2.5-1c1,0,1.8,0.3,2.5,1c0.7,0.6,1.1,1.4,1.2,2.4l0.1,0.5c0,0.1,0.1,0.1,0.2,0.1h1.4c0.8,0,1.5,0.3,2,0.8
	c0.6,0.6,0.8,1.2,0.8,2c0,0.8-0.3,1.4-0.8,2s-1.2,0.9-1.9,0.9c-0.1,0-0.2,0.1-0.2,0.2v1.2c0,0.1,0.1,0.1,0.2,0.1
	c0.8,0,1.5-0.2,2.1-0.6c0.6-0.4,1.2-0.9,1.5-1.6c0.4-0.7,0.6-1.4,0.6-2.2c0-0.6-0.1-1.2-0.4-1.8c0.7-0.8,1-1.8,1-2.9
	c0-0.8-0.2-1.6-0.6-2.3s-1-1.3-1.7-1.7C16.1,5.2,15.3,5,14.5,5c-0.6,0-1.2,0.1-1.8,0.4S11.5,6,11.1,6.5c-0.7-0.4-1.5-0.6-2.4-0.6
	c-1.2,0-2.4,0.4-3.3,1.2s-1.6,1.8-1.9,3c-1,0.2-1.8,0.7-2.4,1.5C0.5,12.4,0.1,13.3,0.1,14.3L0.1,14.3z M7.3,23c0,0.1,0,0.3,0.1,0.4
	c0.1,0.1,0.2,0.2,0.4,0.3c0.1,0,0.2,0,0.2,0c0.1,0,0.2,0,0.3-0.1c0.2-0.1,0.3-0.2,0.4-0.5l0.2-0.9c0.1-0.2,0-0.4-0.1-0.6
	c-0.1-0.2-0.3-0.3-0.5-0.3c-0.2-0.1-0.4,0-0.5,0.1c-0.2,0.1-0.3,0.3-0.4,0.5l-0.2,0.9C7.4,22.9,7.3,23,7.3,23L7.3,23z M7.5,3.5
	c0,0.2,0.1,0.4,0.2,0.5l0.6,0.6c0.1,0.1,0.3,0.2,0.5,0.2c0.2,0,0.4,0,0.5-0.2C9.5,4.4,9.6,4.3,9.6,4c0-0.2-0.1-0.4-0.2-0.5L8.8,2.9
	C8.7,2.8,8.5,2.7,8.3,2.7c-0.2,0-0.4,0.1-0.6,0.2C7.6,3.1,7.5,3.3,7.5,3.5L7.5,3.5z M8.5,18.8c0,0.1,0,0.3,0.1,0.4
	c0.1,0.1,0.2,0.2,0.4,0.3c0.2,0.1,0.4,0,0.5-0.1c0.2-0.1,0.3-0.3,0.4-0.5l0.3-0.9c0.1-0.2,0-0.4-0.1-0.6c-0.1-0.2-0.3-0.3-0.5-0.4
	c-0.2-0.1-0.4,0-0.6,0.1c-0.2,0.1-0.3,0.3-0.4,0.5l-0.2,0.9C8.5,18.7,8.5,18.8,8.5,18.8z M11,20.3c0,0.1,0,0.2,0.1,0.3
	c0.1,0.2,0.3,0.3,0.5,0.4c0.1,0,0.2,0,0.2,0c0.1,0,0.2,0,0.3-0.1c0.2-0.1,0.3-0.2,0.4-0.5l0.2-0.9c0.1-0.2,0-0.4-0.1-0.6
	c-0.1-0.2-0.2-0.3-0.4-0.3c-0.2-0.1-0.4,0-0.6,0.1c-0.2,0.1-0.3,0.2-0.4,0.4L11,20.1C11,20.1,11,20.2,11,20.3L11,20.3z M12.2,16
	c0,0.2,0,0.3,0.1,0.4c0.1,0.1,0.2,0.2,0.4,0.3c0.1,0,0.3,0,0.5,0c0.2-0.1,0.3-0.2,0.4-0.5l0.2-0.9c0.1-0.2,0-0.4-0.1-0.6
	c-0.1-0.2-0.3-0.3-0.5-0.3c-0.2-0.1-0.4,0-0.6,0.1c-0.2,0.1-0.3,0.2-0.4,0.4l-0.3,0.9C12.2,16,12.2,16,12.2,16L12.2,16z M12.3,7.4
	c0.6-0.6,1.3-0.8,2.2-0.8c0.9,0,1.6,0.3,2.2,0.9c0.6,0.6,0.9,1.3,0.9,2.2c0,0.6-0.1,1.1-0.4,1.6c-0.8-0.8-1.9-1.3-3.1-1.3h-0.3
	C13.5,8.9,13,8,12.3,7.4L12.3,7.4z M13.7,2.7c0,0.2,0.1,0.4,0.2,0.5s0.3,0.2,0.5,0.2c0.2,0,0.4-0.1,0.5-0.2c0.1-0.1,0.2-0.3,0.2-0.5
	V0.9c0-0.2-0.1-0.4-0.2-0.5c-0.1-0.1-0.3-0.2-0.5-0.2s-0.4,0.1-0.5,0.2c-0.1,0.1-0.2,0.3-0.2,0.5V2.7z M18.6,4.7
	c0,0.2,0.1,0.4,0.2,0.5c0.1,0.1,0.3,0.2,0.5,0.2c0.2,0,0.4-0.1,0.6-0.2L21.1,4c0.2-0.1,0.2-0.3,0.2-0.5s-0.1-0.4-0.2-0.5
	c-0.1-0.2-0.3-0.2-0.5-0.2c-0.2,0-0.4,0.1-0.5,0.2l-1.3,1.3C18.7,4.3,18.6,4.5,18.6,4.7L18.6,4.7z M19.3,15.2c0,0.2,0.1,0.4,0.2,0.5
	l0.6,0.6c0.2,0.1,0.3,0.2,0.5,0.2l0,0c0.2,0,0.4-0.1,0.5-0.2c0.2-0.1,0.2-0.3,0.2-0.5c0-0.2-0.1-0.4-0.2-0.5l-0.5-0.5
	c-0.2-0.2-0.3-0.2-0.5-0.2c-0.2,0-0.4,0.1-0.5,0.2C19.4,14.8,19.3,15,19.3,15.2L19.3,15.2z M20.6,9.6c0,0.2,0.1,0.4,0.2,0.5
	c0.1,0.2,0.3,0.2,0.5,0.2h1.8c0.2,0,0.4-0.1,0.5-0.2s0.2-0.3,0.2-0.5c0-0.2-0.1-0.4-0.2-0.5c-0.1-0.1-0.3-0.2-0.5-0.2h-1.8
	c-0.2,0-0.4,0.1-0.5,0.2S20.6,9.4,20.6,9.6z"/>
</svg>
