<?xml version="1.0" encoding="utf-8"?>
<!-- Generator: Adobe Illustrator 19.2.0, SVG Export Plug-In . SVG Version: 6.00 Build 0)  -->
<svg version="1.1" id="Layer_1" xmlns="http://www.w3.org/2000/svg" xmlns:xlink="http://www.w3.org/1999/xlink" x="0px" y="0px"
	 viewBox="0 0 24 24" style="enable-background:new 0 0 24 24;" xml:space="preserve">
<path d="M0,14.2c0-0.4,0.1-0.6,0.4-0.9S1,13,1.4,13h8.9c0.4,0,0.8,0.1,1,0.3s0.4,0.5,0.4,0.9c0,0.4-0.1,0.8-0.4,1s-0.6,0.4-1,0.4
	H1.4c-0.4,0-0.8-0.1-1-0.4S0,14.6,0,14.2z M0,5c0-0.4,0.1-0.6,0.4-0.9c0.2-0.2,0.6-0.3,1-0.3H6c0.4,0,0.8,0.1,1,0.3
	C7.3,4.4,7.4,4.7,7.4,5c0,0.4-0.1,0.8-0.4,1C6.8,6.2,6.4,6.4,6,6.4H1.4C1,6.4,0.7,6.3,0.4,6C0.2,5.8,0,5.4,0,5z M1.6,18.8
	c0-0.3,0.1-0.7,0.4-0.9c0.3-0.3,0.6-0.4,0.9-0.4c0.4,0,0.7,0.1,1,0.4s0.4,0.6,0.4,1c0,0.4-0.1,0.8-0.4,1c-0.2,0.2-0.6,0.4-1,0.4
	c-0.4,0-0.7-0.1-1-0.4C1.7,19.6,1.6,19.2,1.6,18.8L1.6,18.8z M3.8,9.6c0-0.4,0.1-0.7,0.3-1C4.4,8.4,4.6,8.2,5,8.2
	c0.4,0,0.7,0.1,1,0.4c0.3,0.3,0.4,0.6,0.4,1c0,0.4-0.1,0.8-0.4,1C5.7,10.8,5.4,11,5,11c-0.4,0-0.6-0.1-0.9-0.4
	C3.9,10.3,3.8,10,3.8,9.6L3.8,9.6z M5.3,18.8c0-0.4,0.1-0.7,0.4-1c0.3-0.3,0.6-0.4,1-0.4h6l1.4,1.4c0,0.4-0.1,0.7-0.4,1
	c-0.3,0.3-0.6,0.4-1,0.4h-6c-0.4,0-0.8-0.1-1-0.4S5.3,19.2,5.3,18.8L5.3,18.8z M7.4,9.6c0-0.3,0.1-0.7,0.4-0.9
	c0.3-0.3,0.6-0.4,0.9-0.4h6c0.4,0,0.7,0.1,1,0.4c0.2,0.3,0.4,0.6,0.4,1c0,0.4-0.1,0.8-0.4,1c-0.2,0.2-0.6,0.4-1,0.4h-6
	c-0.4,0-0.7-0.1-1-0.4C7.5,10.3,7.4,10,7.4,9.6L7.4,9.6z M8.6,5c0-0.4,0.1-0.6,0.4-0.9c0.2-0.2,0.6-0.3,1-0.3h8.9
	c0.4,0,0.7,0.1,0.9,0.4c0.3,0.2,0.4,0.5,0.4,0.8c0,0.4-0.1,0.7-0.4,1c-0.3,0.3-0.6,0.4-1,0.4H9.9c-0.4,0-0.8-0.1-1-0.4
	C8.7,5.8,8.6,5.4,8.6,5z M12.7,14.2c0-0.3,0.1-0.6,0.4-0.9c0.3-0.2,0.6-0.4,0.9-0.4c0.4,0,0.7,0.1,0.9,0.4c0.3,0.2,0.4,0.5,0.4,0.9
	c0,0.4-0.1,0.7-0.4,1c-0.3,0.2-0.6,0.4-1,0.4c-0.4,0-0.7-0.1-1-0.4C12.8,15,12.7,14.6,12.7,14.2z M15.1,18.8c0-0.4,0.1-0.7,0.4-1
	c0.2-0.3,0.6-0.4,1-0.4h2.9c0.4,0,0.7,0.1,1,0.4s0.4,0.6,0.4,1c0,0.4-0.1,0.8-0.4,1s-0.6,0.4-1,0.4h-2.9c-0.4,0-0.8-0.1-1-0.4
	S15.1,19.3,15.1,18.8L15.1,18.8z M16.4,14.2c0-0.3,0.1-0.6,0.4-0.9c0.3-0.2,0.6-0.4,0.9-0.4h4.8c0.3,0,0.6,0.1,0.8,0.4
	c0.2,0.2,0.3,0.5,0.3,0.9c0,0.4-0.1,0.8-0.3,1s-0.5,0.4-0.9,0.4h-4.8c-0.4,0-0.7-0.1-1-0.4C16.6,15,16.4,14.6,16.4,14.2L16.4,14.2z
	 M17.1,9.6c0-0.3,0.1-0.7,0.4-0.9c0.3-0.3,0.6-0.4,0.9-0.4h3.1c0.3,0,0.6,0.1,0.8,0.4c0.2,0.3,0.4,0.6,0.4,0.9c0,0.4-0.1,0.8-0.3,1
	c-0.2,0.2-0.5,0.4-0.9,0.4h-3.1c-0.4,0-0.7-0.1-1-0.4C17.3,10.3,17.1,10,17.1,9.6L17.1,9.6z M21.4,5c0-0.3,0.1-0.6,0.3-0.9
	c0.2-0.2,0.5-0.3,0.9-0.3c0.4,0,0.8,0.1,1,0.3C23.8,4.4,24,4.7,24,5c0,0.4-0.1,0.8-0.4,1c-0.2,0.2-0.6,0.4-1,0.4
	c-0.4,0-0.6-0.1-0.9-0.4C21.5,5.8,21.4,5.4,21.4,5z"/>
</svg>
