<?xml version="1.0" encoding="utf-8"?>
<!-- Generator: Adobe Illustrator 19.2.0, SVG Export Plug-In . SVG Version: 6.00 Build 0)  -->
<svg version="1.1" id="Layer_1" xmlns="http://www.w3.org/2000/svg" xmlns:xlink="http://www.w3.org/1999/xlink" x="0px" y="0px"
	 viewBox="0 0 24 24" style="enable-background:new 0 0 24 24;" xml:space="preserve">
<path d="M0.1,16.7c0-0.2,0.1-0.4,0.2-0.6c0.2-0.2,0.4-0.2,0.6-0.2h17.9c0.2,0,0.4,0.1,0.6,0.2c0.2,0.2,0.2,0.4,0.2,0.6
	c0,0.2-0.1,0.4-0.2,0.6c-0.2,0.2-0.4,0.2-0.6,0.2H0.9c-0.2,0-0.4-0.1-0.6-0.2C0.2,17.1,0.1,16.9,0.1,16.7z M2.6,13.6
	c0-0.2,0.1-0.4,0.3-0.6c0.1-0.1,0.3-0.2,0.6-0.2h18c0.2,0,0.4,0.1,0.6,0.2c0.2,0.2,0.2,0.3,0.2,0.6c0,0.2-0.1,0.4-0.2,0.6
	c-0.2,0.2-0.3,0.2-0.6,0.2h-18c-0.2,0-0.4-0.1-0.6-0.2C2.7,14.1,2.6,13.9,2.6,13.6L2.6,13.6z M2.7,11.4c0,0.1,0,0.1,0.1,0.1h1.4
	c0.1,0,0.1-0.1,0.2-0.2c0.2-0.5,0.6-0.9,1-1.2c0.5-0.3,1-0.5,1.5-0.5l0.5-0.1c0.1,0,0.2-0.1,0.2-0.2l0.1-0.5c0.1-1,0.5-1.9,1.3-2.6
	s1.7-1,2.7-1c1,0,1.9,0.3,2.7,1s1.2,1.5,1.3,2.6l0.1,0.5c0,0.1,0.1,0.2,0.2,0.2h1.5c0.6,0,1.2,0.2,1.7,0.5c0.5,0.3,0.9,0.8,1.1,1.3
	c0.1,0.1,0.1,0.2,0.2,0.2H22c0.1,0,0.2-0.1,0.1-0.2c-0.3-1-0.8-1.8-1.7-2.4c-0.8-0.6-1.8-0.9-2.9-0.9h-0.3c-0.3-1.3-1-2.3-2-3.1
	c-1-0.8-2.2-1.2-3.5-1.2c-1.3,0-2.5,0.4-3.6,1.3s-1.7,1.9-2,3.2C5.4,8.2,4.7,8.6,4,9.2C3.4,9.8,3,10.5,2.7,11.4L2.7,11.4
	C2.7,11.3,2.7,11.3,2.7,11.4L2.7,11.4z M4.3,19.6c0-0.2,0.1-0.4,0.3-0.6c0.1-0.1,0.3-0.2,0.6-0.2h18c0.2,0,0.4,0.1,0.6,0.2
	c0.2,0.2,0.2,0.3,0.2,0.6c0,0.2-0.1,0.4-0.2,0.6s-0.4,0.2-0.6,0.2h-18c-0.2,0-0.4-0.1-0.6-0.2C4.4,20,4.3,19.8,4.3,19.6L4.3,19.6z"
	/>
</svg>
