<?xml version="1.0" encoding="utf-8"?>
<!-- Generator: Adobe Illustrator 19.2.0, SVG Export Plug-In . SVG Version: 6.00 Build 0)  -->
<svg version="1.1" id="Layer_1" xmlns="http://www.w3.org/2000/svg" xmlns:xlink="http://www.w3.org/1999/xlink" x="0px" y="0px"
	 viewBox="0 0 24 24" style="enable-background:new 0 0 24 24;" xml:space="preserve">
<path d="M0.1,11.2c0,1.5,0.5,2.8,1.6,3.9s2.4,1.7,3.9,1.8c0.1,0,0.2-0.1,0.2-0.2v-1.5c0-0.1-0.1-0.2-0.2-0.2c-1-0.1-1.8-0.4-2.5-1.2
	c-0.7-0.7-1-1.6-1-2.6c0-0.9,0.3-1.8,1-2.5c0.6-0.7,1.4-1.1,2.4-1.2l0.6,0c0.2,0,0.2-0.1,0.2-0.2l0.1-0.6C6.5,5.4,7,4.4,7.9,3.6
	c0.9-0.8,2-1.3,3.3-1.3c1.2,0,2.3,0.4,3.3,1.3s1.5,1.9,1.6,3.1l0.1,0.7c0,0.1,0.1,0.2,0.2,0.2h1.8c1,0,1.9,0.4,2.6,1.1
	c0.7,0.7,1.1,1.6,1.1,2.6c0,1-0.3,1.9-1,2.6c-0.7,0.7-1.5,1.1-2.5,1.2c-0.2,0-0.2,0.1-0.2,0.2v1.5c0,0.1,0.1,0.2,0.2,0.2
	c1,0,1.9-0.3,2.8-0.8c0.8-0.5,1.5-1.2,2-2.1c0.5-0.9,0.7-1.8,0.7-2.8c0-1-0.3-2-0.8-2.8s-1.2-1.5-2.1-2s-1.8-0.7-2.8-0.7h-0.4
	c-0.4-1.5-1.2-2.8-2.4-3.8s-2.6-1.5-4.2-1.5c-1.6,0-3,0.5-4.3,1.5S4.8,4.2,4.5,5.7c-1.3,0.3-2.3,1-3.1,2S0.1,9.9,0.1,11.2L0.1,11.2z
	 M6.4,19.5c0.1,0.2,0.3,0.4,0.5,0.5c0.2,0.1,0.5,0.1,0.7,0s0.4-0.3,0.5-0.5c0.1-0.3,0.1-0.5,0-0.7s-0.3-0.4-0.5-0.5
	c-0.2-0.1-0.5-0.1-0.7,0c-0.2,0.1-0.4,0.3-0.5,0.5C6.3,19,6.3,19.2,6.4,19.5L6.4,19.5z M7.1,16.3c0,0.2,0.1,0.4,0.2,0.5
	c0.1,0.2,0.3,0.3,0.5,0.4c0.2,0.1,0.5,0.1,0.7,0c0.3-0.1,0.4-0.3,0.5-0.7l1-3.9c0.1-0.3,0-0.5-0.1-0.8c-0.1-0.2-0.3-0.4-0.6-0.4
	c-0.1,0-0.2,0-0.3,0c-0.2,0-0.4,0.1-0.5,0.2s-0.3,0.3-0.4,0.5l-1,3.9C7.1,16.1,7.1,16.2,7.1,16.3L7.1,16.3z M9.2,22.7
	c0,0.1,0,0.2,0.1,0.3c0.1,0.3,0.3,0.4,0.5,0.5c0.1,0.1,0.2,0.1,0.4,0.1c0.1,0,0.2,0,0.3-0.1c0.3-0.1,0.4-0.3,0.5-0.5
	c0.1-0.3,0.1-0.5,0-0.8c-0.1-0.3-0.3-0.4-0.5-0.5c-0.2-0.1-0.5-0.1-0.7,0c-0.2,0.1-0.4,0.2-0.5,0.4C9.3,22.3,9.2,22.5,9.2,22.7z
	 M10.1,19.7c0,0.4,0.2,0.7,0.7,0.8c0.1,0,0.2,0,0.3,0c0.2,0,0.3,0,0.4-0.1c0.2-0.1,0.4-0.3,0.5-0.7l1.9-7.2c0.1-0.3,0-0.5-0.1-0.7
	c-0.1-0.2-0.3-0.4-0.6-0.4c-0.1,0-0.2,0-0.3,0c-0.2,0-0.4,0.1-0.6,0.2c-0.2,0.1-0.3,0.3-0.3,0.5l-2,7.3
	C10.1,19.5,10.1,19.6,10.1,19.7L10.1,19.7z M14,19.2c0,0.1,0,0.3,0.1,0.4c0.1,0.2,0.3,0.4,0.5,0.5c0.1,0.1,0.3,0.1,0.4,0.1
	c0.1,0,0.2,0,0.3-0.1c0.2-0.1,0.4-0.3,0.5-0.5c0.1-0.3,0.1-0.5,0-0.7c-0.1-0.2-0.3-0.4-0.5-0.5c-0.3-0.1-0.5-0.1-0.7,0
	s-0.4,0.3-0.5,0.5C14,18.9,14,19,14,19.2z M14.8,16.2c0,0.2,0.1,0.3,0.2,0.5c0.1,0.2,0.3,0.3,0.5,0.4c0.2,0,0.3,0.1,0.3,0.1
	c0.1,0,0.2,0,0.4-0.1c0.2-0.1,0.4-0.3,0.5-0.6l1-3.8c0-0.2,0-0.3,0-0.3c0-0.2-0.1-0.4-0.2-0.5c-0.1-0.2-0.3-0.3-0.5-0.4
	c-0.1,0-0.2,0-0.3,0c-0.2,0-0.4,0.1-0.5,0.2c-0.2,0.1-0.3,0.3-0.4,0.5l-1,3.8L14.8,16.2z"/>
</svg>
