<?xml version="1.0" encoding="utf-8"?>
<!-- Generator: Adobe Illustrator 19.2.0, SVG Export Plug-In . SVG Version: 6.00 Build 0)  -->
<svg version="1.1" id="Layer_1" xmlns="http://www.w3.org/2000/svg" xmlns:xlink="http://www.w3.org/1999/xlink" x="0px" y="0px"
	 viewBox="0 0 24 24" style="enable-background:new 0 0 24 24;" xml:space="preserve">
<path d="M0.2,12.7c0-0.3,0.1-0.5,0.3-0.7c0.2-0.2,0.4-0.3,0.7-0.3h2.2c0.3,0,0.5,0.1,0.7,0.3c0.2,0.2,0.3,0.4,0.3,0.7
	c0,0.3-0.1,0.5-0.3,0.7c-0.2,0.2-0.4,0.3-0.7,0.3H1.2c-0.3,0-0.5-0.1-0.7-0.3C0.3,13.2,0.2,13,0.2,12.7z M3.4,5.1
	c0-0.3,0.1-0.5,0.3-0.7c0.2-0.2,0.4-0.3,0.7-0.3c0.2,0,0.4,0.1,0.6,0.3l1.6,1.6c0.2,0.2,0.3,0.4,0.3,0.6c0,0.3-0.1,0.5-0.3,0.7
	C6.4,7.5,6.2,7.6,5.9,7.6c-0.3,0-0.5-0.1-0.7-0.3L3.7,5.8C3.5,5.6,3.4,5.4,3.4,5.1L3.4,5.1z M6.2,12.7c0-0.8,0.2-1.5,0.5-2.2
	C7,9.8,7.4,9.2,7.9,8.7c0.5-0.5,1.1-0.9,1.8-1.2C10.5,7.2,11.2,7,12,7c1,0,2,0.3,2.9,0.8C15.8,8.3,16.5,9,17,9.9s0.8,1.8,0.8,2.9
	c0,0.2,0,0.3,0,0.5c-0.3-0.2-0.7-0.3-1-0.3c-0.3,0-0.5,0.1-0.8,0.2c0-0.1,0-0.2,0-0.3c0-1.1-0.4-2-1.1-2.7S13.1,8.9,12,8.9
	c-1.1,0-2,0.4-2.7,1.1c-0.8,0.7-1.1,1.6-1.1,2.7v0.2c-0.3,0-0.6,0.1-0.9,0.3c0,0,0,0-0.1,0.1c-0.1,0-0.1,0.1-0.2,0.1
	c-0.1,0.1-0.2,0.1-0.3,0.2c-0.1,0.1-0.2,0.2-0.3,0.3C6.3,13.5,6.2,13.2,6.2,12.7L6.2,12.7z M6.3,16.7v-0.2c0-0.1,0-0.2,0-0.4
	c0.1-0.4,0.2-0.8,0.5-1.1C6.9,14.9,7,14.8,7,14.7c0,0,0,0,0-0.1l0,0c0,0,0.1-0.1,0.1-0.1c0,0,0-0.1,0.1-0.1c0,0,0.1,0,0.1-0.1
	c0.1-0.1,0.1-0.1,0.2-0.1l0.2-0.1C7.9,14,8.1,14,8.3,14h0c0.1,0,0.2,0,0.3,0c0,0,0.1,0,0.1,0.1v0c0.2,0.1,0.3,0.2,0.4,0.3
	c0.1,0.1,0.1,0.3,0.1,0.5c0,0.2-0.1,0.3-0.2,0.5c-0.1,0.1-0.1,0.2-0.2,0.3c0,0,0,0-0.1,0c0,0,0,0,0,0l-0.1,0c0,0-0.1,0.1-0.1,0.1
	c0,0-0.1,0.1-0.1,0.1c0,0.1-0.1,0.1-0.1,0.1s-0.1,0.1-0.1,0.2c0,0.1,0,0.1-0.1,0.2v0.2c0,0.2,0.1,0.3,0.1,0.4
	c0.1,0.1,0.2,0.3,0.4,0.5c0,0,0.1,0.1,0.3,0.3c0.9,0.8,1.4,1.8,1.3,2.7c0,0.3-0.1,0.6-0.2,0.9c-0.1,0.3-0.3,0.6-0.5,0.8
	c-0.2,0.2-0.3,0.4-0.4,0.5c-0.1,0.1-0.2,0.2-0.3,0.2c0,0,0,0-0.1,0c0,0-0.1,0-0.1,0c-0.1,0-0.2,0.1-0.2,0.1c-0.1,0-0.2,0-0.2,0
	c-0.3,0-0.6-0.1-0.8-0.3c-0.2-0.2-0.2-0.4-0.2-0.6s0.1-0.4,0.4-0.6l0,0c0,0,0,0,0.1,0c0,0,0,0,0.1-0.1c0,0,0.1-0.1,0.1-0.1
	c0,0,0.1-0.1,0.1-0.1C8,21,8,21,8.1,20.9c0,0,0.1-0.1,0.1-0.1c0-0.1,0.1-0.1,0.1-0.2c0-0.1,0-0.1,0.1-0.2c0-0.1,0-0.1,0-0.2
	c0-0.2,0-0.4-0.2-0.6c-0.1-0.1-0.1-0.2-0.2-0.4c-0.1-0.1-0.1-0.1-0.2-0.2c-0.1-0.1-0.2-0.2-0.2-0.2c0,0,0,0-0.1-0.1
	c0,0-0.1,0-0.1-0.1c-0.2-0.1-0.3-0.3-0.4-0.4c-0.1-0.2-0.2-0.3-0.3-0.3c-0.2-0.3-0.4-0.6-0.4-0.8c0-0.2-0.1-0.3-0.1-0.3
	C6.3,16.8,6.3,16.8,6.3,16.7C6.3,16.7,6.3,16.7,6.3,16.7L6.3,16.7z M10.5,16.3c0-0.1,0-0.1,0-0.2c0-0.2,0.1-0.5,0.2-0.7
	c0.1-0.2,0.2-0.4,0.4-0.6c0.1-0.2,0.3-0.3,0.4-0.4c0.1-0.1,0.2-0.2,0.3-0.3l0.1-0.1c0.2-0.1,0.3-0.2,0.5-0.2c0.1,0,0.2,0,0.3,0
	c0,0,0,0,0.1,0c0,0,0.1,0,0.1,0c0,0,0,0,0,0c0,0,0,0,0.1,0.1c0.2,0.1,0.4,0.3,0.4,0.6c0,0,0,0,0,0.1c0,0,0,0,0,0.1c0,0,0,0.1,0,0.1
	c0,0.1,0,0.1,0,0.1c-0.1,0.2-0.2,0.4-0.5,0.5c-0.4,0.2-0.5,0.5-0.6,0.8c0,0.1,0,0.2,0,0.2c0,0.1,0.1,0.3,0.2,0.4
	c0.1,0.2,0.2,0.3,0.3,0.3c0.2,0.2,0.3,0.3,0.3,0.3c0.1,0.1,0.3,0.3,0.5,0.5c0.6,0.7,0.9,1.4,0.8,2.2c0,0.3-0.1,0.6-0.2,0.9
	c-0.1,0.3-0.3,0.6-0.5,0.8c-0.2,0.2-0.3,0.4-0.4,0.5c-0.1,0.1-0.2,0.2-0.3,0.2l-0.1,0.1c-0.1,0-0.2,0.1-0.2,0.1c-0.1,0-0.2,0-0.2,0
	h0c-0.1,0-0.2,0-0.2,0c0,0,0,0-0.1,0c0,0-0.1,0-0.1,0c0,0,0,0,0,0c0,0,0,0,0,0c0,0,0,0,0,0c-0.2-0.1-0.3-0.2-0.3-0.2
	c-0.2-0.2-0.2-0.4-0.2-0.6c0-0.2,0.2-0.4,0.4-0.6l0,0c0,0,0.1,0,0.1-0.1l0.1-0.1c0,0,0-0.1,0.1-0.2c0.1-0.1,0.1-0.2,0.1-0.2
	s0-0.1,0.1-0.2c0.1-0.1,0.1-0.2,0-0.3c0-0.4-0.2-0.9-0.8-1.4c-0.2-0.2-0.4-0.3-0.5-0.5C10.7,17.7,10.4,17,10.5,16.3L10.5,16.3z
	 M11,4.2V2c0-0.3,0.1-0.5,0.3-0.7S11.7,1,12,1c0.3,0,0.5,0.1,0.7,0.3s0.3,0.4,0.3,0.7v2.2c0,0.3-0.1,0.5-0.3,0.6S12.3,5.1,12,5.1
	c-0.3,0-0.5-0.1-0.7-0.3S11,4.5,11,4.2z M14.7,16.2c0-0.2,0.1-0.5,0.2-0.7c0.1-0.2,0.2-0.4,0.4-0.6c0.1-0.2,0.3-0.3,0.4-0.4
	c0.1-0.1,0.2-0.2,0.3-0.3l0.1-0.1c0,0,0.1,0,0.1-0.1c0.1,0,0.3-0.1,0.4-0.1c0.4,0,0.6,0.1,0.8,0.4c0.1,0.1,0.1,0.2,0.1,0.2
	c0,0,0,0.1,0,0.1v0.1c0,0.3-0.2,0.6-0.5,0.8c-0.3,0.2-0.5,0.5-0.6,0.8c0,0.4,0.2,0.8,0.7,1.3c0.9,0.8,1.4,1.7,1.3,2.7
	c0,0.3-0.1,0.6-0.2,0.9c-0.1,0.3-0.3,0.6-0.5,0.8s-0.3,0.4-0.4,0.5c-0.1,0.1-0.2,0.2-0.3,0.2c-0.2,0.1-0.3,0.2-0.4,0.2
	c0,0-0.1,0-0.2,0c-0.3,0-0.6-0.1-0.8-0.3c-0.2-0.2-0.2-0.4-0.2-0.6c0-0.2,0.1-0.4,0.3-0.6c0,0,0.1-0.1,0.2-0.2
	c0.1-0.1,0.2-0.2,0.3-0.4c0.1-0.2,0.2-0.4,0.2-0.6c0-0.4-0.2-0.9-0.8-1.4c-0.4-0.4-0.8-0.8-1-1.3C14.7,17.2,14.6,16.7,14.7,16.2
	L14.7,16.2z M17.2,6.7c0-0.3,0.1-0.5,0.2-0.6L19,4.5c0.2-0.2,0.4-0.3,0.7-0.3c0.3,0,0.5,0.1,0.7,0.3c0.2,0.2,0.3,0.4,0.3,0.7
	c0,0.3-0.1,0.5-0.3,0.7l-1.6,1.6c-0.2,0.2-0.4,0.3-0.7,0.3c-0.3,0-0.5-0.1-0.6-0.3C17.2,7.2,17.2,7,17.2,6.7L17.2,6.7z M19.7,12.7
	c0-0.2,0.1-0.5,0.3-0.7c0.2-0.2,0.4-0.3,0.6-0.3h2.2c0.3,0,0.5,0.1,0.7,0.3c0.2,0.2,0.3,0.4,0.3,0.7c0,0.3-0.1,0.5-0.3,0.7
	s-0.4,0.3-0.7,0.3h-2.2c-0.3,0-0.5-0.1-0.7-0.3C19.7,13.2,19.7,13,19.7,12.7L19.7,12.7z"/>
</svg>
