<?xml version="1.0" encoding="utf-8"?>
<!-- Generator: Adobe Illustrator 19.2.0, SVG Export Plug-In . SVG Version: 6.00 Build 0)  -->
<svg version="1.1" id="Layer_1" xmlns="http://www.w3.org/2000/svg" xmlns:xlink="http://www.w3.org/1999/xlink" x="0px" y="0px"
	 viewBox="0 0 24 24" style="enable-background:new 0 0 24 24;" xml:space="preserve">
<path d="M7,12.1L7,12.1c0-0.2,0-0.3,0-0.6c0-0.3,0.1-0.7,0.2-1.2s0.2-1.2,0.4-1.8C7.7,7.9,8,7.2,8.4,6.4s0.8-1.5,1.3-2.2
	s1.1-1.4,1.9-2.2c0.8-0.7,1.7-1.4,2.7-1.9C14.5,0,14.7,0,15,0c0.3,0.1,0.5,0.2,0.6,0.5c0.1,0.2,0.2,0.5,0.1,0.8
	c-0.1,0.3-0.2,0.5-0.5,0.6c-2,1.1-3.6,2.7-4.7,4.7C11.4,6.2,12.2,6,13.1,6c1.7,0,3.1,0.6,4.3,1.8s1.8,2.6,1.8,4.3c0,0.1,0,0.2,0,0.4
	c0,0.1,0,0.4-0.1,0.8c0,0.4-0.1,0.8-0.2,1.2c-0.1,0.4-0.2,0.9-0.4,1.4c-0.2,0.6-0.4,1.1-0.6,1.6c-0.2,0.5-0.5,1.1-0.9,1.7
	c-0.4,0.6-0.8,1.2-1.2,1.7c-0.5,0.5-1,1.1-1.7,1.6c-0.7,0.5-1.4,1-2.1,1.5c-0.1,0.1-0.3,0.1-0.5,0.1c-0.4,0-0.7-0.2-0.9-0.5
	c-0.1-0.2-0.2-0.5-0.1-0.8c0.1-0.3,0.2-0.5,0.5-0.6c2.1-1.2,3.7-2.7,4.7-4.8c-0.8,0.4-1.7,0.6-2.6,0.6c-1.1,0-2.1-0.3-3-0.8
	S8.4,16,7.9,15.1C7.3,14.2,7,13.2,7,12.1L7,12.1z M9.7,12.1c0,0.9,0.3,1.8,1,2.4c0.7,0.7,1.5,1,2.4,1c0.9,0,1.6-0.3,2.3-0.9
	c0.7-0.6,1-1.3,1.1-2.2l0-0.3c0,0,0-0.1,0-0.1c0-0.9-0.4-1.7-1-2.4c-0.7-0.6-1.5-1-2.4-1c-0.9,0-1.6,0.3-2.3,0.8
	c-0.6,0.6-1,1.3-1.1,2.1L9.7,12.1L9.7,12.1L9.7,12.1z"/>
</svg>
