<?xml version="1.0" encoding="utf-8"?>
<!-- Generator: Adobe Illustrator 19.2.0, SVG Export Plug-In . SVG Version: 6.00 Build 0)  -->
<svg version="1.1" id="Layer_1" xmlns="http://www.w3.org/2000/svg" xmlns:xlink="http://www.w3.org/1999/xlink" x="0px" y="0px"
	 viewBox="0 0 24 24" style="enable-background:new 0 0 24 24;" xml:space="preserve">
<path d="M0.1,18.3c0,1.4,0.5,2.6,1.5,3.7c1,1,2.3,1.5,3.7,1.5h10c1.4,0,2.6-0.5,3.6-1.5s1.5-2.2,1.5-3.7c0-0.7-0.1-1.3-0.3-1.8
	c1.2-0.8,2.2-1.8,2.9-3.1c0.7-1.3,1.1-2.7,1.1-4.1c0-1.2-0.2-2.3-0.7-3.4c-0.5-1.1-1.1-2-1.9-2.8s-1.7-1.4-2.8-1.9s-2.2-0.7-3.4-0.7
	c-1.6,0-3.1,0.4-4.4,1.2C9.6,2.5,8.5,3.5,7.7,4.9S6.6,7.7,6.6,9.3v0.5c-1.5,0.8-2.4,2-2.9,3.6c-1.1,0.3-2,1-2.6,1.8
	C0.4,16.1,0.1,17.1,0.1,18.3L0.1,18.3z M2.9,18.3c0-0.6,0.2-1.1,0.6-1.6C3.9,16.3,4.4,16,5,16l0.9-0.1c0.2,0,0.3-0.1,0.3-0.3
	l0.2-0.8c0.1-0.8,0.5-1.5,1.1-2.1C8,12,8.7,11.7,9.6,11.7c0.8,0,1.6,0.3,2.2,0.8s1,1.3,1.1,2.1l0.1,0.9c0.1,0.2,0.2,0.3,0.4,0.3h1.9
	c0.6,0,1.2,0.2,1.6,0.7c0.5,0.5,0.7,1,0.7,1.6c0,0.7-0.2,1.2-0.7,1.7c-0.5,0.5-1,0.7-1.6,0.7h-10c-0.7,0-1.2-0.2-1.7-0.7
	S2.9,18.9,2.9,18.3L2.9,18.3z M9.4,9c0.1-1.6,0.7-2.9,1.8-4s2.5-1.6,4.1-1.6c1.6,0,3,0.6,4.1,1.7s1.7,2.6,1.7,4.2c0,1-0.2,2-0.7,2.8
	c-0.5,0.9-1.2,1.6-2,2.1c-0.9-0.7-1.8-1.1-3-1.1c-0.4-1.3-1.2-2.3-2.2-3C12.1,9.3,10.9,9,9.6,9C9.6,9,9.4,9,9.4,9z"/>
</svg>
