<?xml version="1.0" encoding="utf-8"?>
<!-- Generator: Adobe Illustrator 19.2.0, SVG Export Plug-In . SVG Version: 6.00 Build 0)  -->
<svg version="1.1" id="Layer_1" xmlns="http://www.w3.org/2000/svg" xmlns:xlink="http://www.w3.org/1999/xlink" x="0px" y="0px"
	 viewBox="0 0 24 24" style="enable-background:new 0 0 24 24;" xml:space="preserve">
<path d="M0.2,15.1c0,1,0.2,1.9,0.7,2.7s1.1,1.5,2,2s1.7,0.7,2.7,0.7h11.9c1,0,1.9-0.2,2.7-0.7s1.5-1.1,2-2c0.5-0.8,0.7-1.7,0.7-2.7
	c0-0.7-0.2-1.4-0.5-2.2c0.8-1,1.2-2.2,1.2-3.6c0-1-0.3-2-0.8-2.9s-1.2-1.6-2.1-2.1C20,3.8,19.1,3.5,18,3.5c-1.6,0-3.1,0.6-4.3,1.9
	c-0.8-0.5-1.8-0.7-3-0.7c-1.5,0-2.9,0.5-4.1,1.4S4.8,8.3,4.4,9.8c-1.2,0.3-2.2,0.9-3,1.9S0.2,13.8,0.2,15.1L0.2,15.1z M2.1,15.1
	c0-0.9,0.3-1.7,0.9-2.4c0.6-0.7,1.4-1.1,2.3-1.2l0.8,0l0.1-0.8c0.2-1.2,0.7-2.2,1.5-3s1.9-1.2,3.1-1.2c1.2,0,2.2,0.4,3.1,1.2
	c0.9,0.8,1.4,1.8,1.5,3l0.1,0.8h2c1,0,1.8,0.3,2.5,1c0.7,0.7,1.1,1.5,1.1,2.5c0,1-0.3,1.8-1,2.5c-0.7,0.7-1.5,1.1-2.5,1.1H5.7
	c-1,0-1.8-0.4-2.5-1.1C2.5,16.9,2.1,16,2.1,15.1L2.1,15.1z M15.3,6.5C16.1,5.7,17,5.4,18,5.4c1.1,0,2,0.4,2.8,1.1s1.1,1.7,1.1,2.8
	c0,0.7-0.2,1.4-0.6,2c-1.1-1.1-2.3-1.6-3.8-1.6h-0.3C16.9,8.5,16.3,7.4,15.3,6.5z"/>
</svg>
