<?xml version="1.0" encoding="utf-8"?>
<!-- Generator: Adobe Illustrator 19.2.0, SVG Export Plug-In . SVG Version: 6.00 Build 0)  -->
<svg version="1.1" id="Layer_1" xmlns="http://www.w3.org/2000/svg" xmlns:xlink="http://www.w3.org/1999/xlink" x="0px" y="0px"
	 viewBox="0 0 24 24" style="enable-background:new 0 0 24 24;" xml:space="preserve">
<path d="M0.1,12c0-1.6,0.3-3.2,0.9-4.6s1.5-2.7,2.5-3.8S5.9,1.6,7.4,1s3-1,4.6-1H14c0.3,0.1,0.4,0.2,0.4,0.5L14.4,2
	c0.1,2.1,0.8,4,2.3,5.5s3.3,2.3,5.4,2.4l1.4,0.1c0.3,0,0.4,0.1,0.4,0.4V12c0,2.2-0.5,4.2-1.6,6c-1.1,1.8-2.5,3.3-4.3,4.4
	c-1.8,1.1-3.8,1.6-6,1.6c-1.6,0-3.2-0.3-4.7-0.9s-2.7-1.5-3.8-2.5c-1.1-1.1-1.9-2.3-2.5-3.8C0.4,15.2,0.1,13.6,0.1,12L0.1,12z
	 M3.2,12c0,1.3,0.3,2.5,0.8,3.6s1.2,2.1,2,2.9c0.8,0.8,1.8,1.4,2.8,1.8C9.8,20.8,10.9,21,12,21c1,0,2-0.2,3-0.6
	c1-0.4,1.9-0.9,2.8-1.6s1.6-1.6,2.2-2.6c0.6-1.1,1-2.2,1.2-3.5c-2.7-0.6-4.9-1.7-6.6-3.5s-2.6-3.9-2.9-6.3c-1.6,0.1-3,0.6-4.4,1.5
	C6,5.2,5,6.3,4.3,7.7S3.2,10.5,3.2,12L3.2,12z"/>
</svg>
