<?xml version="1.0" encoding="utf-8"?>
<!-- Generator: Adobe Illustrator 19.2.0, SVG Export Plug-In . SVG Version: 6.00 Build 0)  -->
<svg version="1.1" id="Layer_1" xmlns="http://www.w3.org/2000/svg" xmlns:xlink="http://www.w3.org/1999/xlink" x="0px" y="0px"
	 viewBox="0 0 24 24" style="enable-background:new 0 0 24 24;" xml:space="preserve">
<path d="M0.2,11.2c0,1.5,0.5,2.8,1.6,3.9c1.1,1.1,2.3,1.7,3.8,1.7c0.1,0,0.2-0.1,0.2-0.2V15c0-0.1-0.1-0.2-0.2-0.2
	c-1,0-1.8-0.4-2.5-1.2c-0.7-0.7-1-1.6-1-2.5c0-1,0.3-1.8,1-2.5s1.4-1.1,2.4-1.2l0.6-0.1c0.1,0,0.2-0.1,0.2-0.2l0.1-0.6
	C6.5,5.4,7,4.4,8,3.5s2-1.3,3.3-1.3c1.2,0,2.3,0.4,3.2,1.2c0.9,0.8,1.5,1.9,1.6,3.1l0.1,0.7c0,0.1,0.1,0.2,0.2,0.2h1.8
	c1,0,1.9,0.4,2.6,1.1c0.7,0.7,1.1,1.6,1.1,2.6c0,1-0.3,1.8-1,2.5c-0.7,0.7-1.5,1.1-2.5,1.2c-0.1,0-0.2,0.1-0.2,0.2v1.5
	c0,0.1,0.1,0.2,0.2,0.2c1.5,0,2.8-0.6,3.8-1.7c1-1.1,1.6-2.4,1.6-3.9c0-1-0.3-2-0.8-2.8c-0.5-0.9-1.2-1.5-2.1-2
	c-0.9-0.5-1.8-0.8-2.8-0.8h-0.4c-0.4-1.5-1.2-2.8-2.4-3.7s-2.6-1.5-4.2-1.5c-1.6,0-3,0.5-4.3,1.5s-2,2.3-2.4,3.8
	c-1.3,0.3-2.3,1-3.1,2S0.2,9.8,0.2,11.2L0.2,11.2z M6.4,19.1c0,0.2,0.1,0.4,0.2,0.6c0.1,0.2,0.3,0.3,0.5,0.4c0.3,0.1,0.5,0.1,0.7,0
	C8,20,8.2,19.7,8.3,19.4l0.2-0.7c0.1-0.3,0-0.5-0.1-0.7c-0.1-0.2-0.3-0.4-0.6-0.5c-0.3-0.1-0.5,0-0.7,0.1c-0.2,0.1-0.4,0.3-0.5,0.6
	l-0.2,0.7C6.4,19,6.4,19,6.4,19.1L6.4,19.1z M7.2,15.8c0,0.2,0.1,0.5,0.3,0.6c0.2,0.2,0.4,0.3,0.6,0.3c0.3,0,0.5-0.1,0.7-0.3
	c0.2-0.2,0.3-0.4,0.3-0.7c0-0.3-0.1-0.5-0.3-0.7s-0.4-0.3-0.7-0.3c-0.3,0-0.5,0.1-0.7,0.3S7.2,15.6,7.2,15.8L7.2,15.8z M7.9,13.3
	c0,0.2,0,0.3,0.2,0.5c0.1,0.2,0.3,0.3,0.5,0.4c0.2,0.1,0.5,0,0.7-0.1c0.2-0.1,0.4-0.3,0.5-0.6l0.3-1c0.1-0.3,0.1-0.5-0.1-0.7
	c-0.1-0.2-0.3-0.4-0.6-0.4c-0.2-0.1-0.5-0.1-0.7,0.1c-0.2,0.1-0.4,0.3-0.5,0.6L8,13c0,0,0,0.1,0,0.1C7.9,13.2,7.9,13.2,7.9,13.3
	L7.9,13.3z M9.3,22.7c0,0.2,0.1,0.4,0.2,0.6c0.1,0.2,0.3,0.3,0.5,0.4c0.1,0,0.2,0,0.3,0c0.5,0,0.8-0.2,0.9-0.7l0.2-0.7
	c0.1-0.3,0-0.6-0.1-0.8c-0.1-0.2-0.3-0.4-0.6-0.4c-0.2-0.1-0.5-0.1-0.7,0.1c-0.2,0.1-0.4,0.3-0.5,0.6l-0.2,0.7
	C9.3,22.5,9.3,22.6,9.3,22.7L9.3,22.7z M10.1,19.4c0,0.2,0.1,0.5,0.3,0.7c0.2,0.2,0.4,0.3,0.6,0.3c0.3,0,0.5-0.1,0.7-0.3
	s0.3-0.4,0.3-0.7c0-0.3-0.1-0.5-0.3-0.7s-0.4-0.3-0.7-0.3s-0.5,0.1-0.7,0.3S10.1,19.1,10.1,19.4z M10.9,16.8c0,0.2,0,0.3,0.1,0.5
	c0.1,0.2,0.3,0.3,0.5,0.3c0.3,0.1,0.5,0,0.7-0.1c0.2-0.1,0.4-0.3,0.5-0.6l0.3-1c0.1-0.2,0.1-0.5-0.1-0.7c-0.1-0.2-0.3-0.4-0.6-0.5
	c-0.2-0.1-0.5,0-0.7,0.1c-0.2,0.1-0.4,0.3-0.5,0.6l-0.3,1C10.9,16.6,10.9,16.7,10.9,16.8L10.9,16.8z M14,19.2c0,0.2,0.1,0.4,0.2,0.5
	c0.1,0.2,0.3,0.3,0.5,0.4c0,0,0.1,0,0.2,0s0.1,0,0.2,0c0.5,0,0.7-0.2,0.9-0.7l0.2-0.7c0.1-0.2,0.1-0.5-0.1-0.7
	c-0.1-0.2-0.3-0.4-0.6-0.5c-0.3-0.1-0.5,0-0.8,0.1c-0.2,0.1-0.4,0.3-0.5,0.6L14,19c0,0,0,0.1,0,0.1C14,19.2,14,19.2,14,19.2L14,19.2
	z M14.8,15.9c0,0.3,0.1,0.5,0.3,0.6c0.2,0.2,0.4,0.3,0.6,0.3c0.3,0,0.5-0.1,0.7-0.3s0.3-0.4,0.3-0.7c0-0.3-0.1-0.5-0.3-0.7
	c-0.2-0.2-0.4-0.3-0.7-0.3c-0.3,0-0.5,0.1-0.7,0.3C14.9,15.4,14.8,15.6,14.8,15.9z M15.5,13.3c0,0.2,0.1,0.4,0.2,0.5
	c0.1,0.2,0.3,0.3,0.6,0.4c0,0,0.1,0,0.1,0c0.1,0,0.1,0,0.2,0c0.1,0,0.2,0,0.4-0.1c0.2-0.1,0.4-0.3,0.5-0.6l0.3-1
	c0.1-0.3,0-0.5-0.1-0.7c-0.1-0.2-0.3-0.4-0.6-0.5c-0.3-0.1-0.5-0.1-0.7,0.1c-0.2,0.1-0.4,0.3-0.4,0.6l-0.3,1c0,0,0,0.1,0,0.1
	C15.5,13.2,15.5,13.2,15.5,13.3L15.5,13.3z"/>
</svg>
