<?xml version="1.0" encoding="utf-8"?>
<!-- Generator: Adobe Illustrator 19.2.0, SVG Export Plug-In . SVG Version: 6.00 Build 0)  -->
<svg version="1.1" id="Layer_1" xmlns="http://www.w3.org/2000/svg" xmlns:xlink="http://www.w3.org/1999/xlink" x="0px" y="0px"
	 viewBox="0 0 24 24" style="enable-background:new 0 0 24 24;" xml:space="preserve">
<path d="M0.1,11.3c0-1.3,0.4-2.5,1.2-3.5s1.9-1.7,3.2-2C4.9,4.2,5.7,3,6.9,1.9s2.7-1.5,4.3-1.5c1.6,0,3,0.5,4.2,1.5s2,2.2,2.4,3.8
	h0.4c1,0,2,0.3,2.8,0.8s1.5,1.2,2,2.1s0.7,1.8,0.7,2.8c0,1.5-0.5,2.8-1.6,3.9c-1,1.1-2.3,1.7-3.8,1.7c-0.1,0-0.2-0.1-0.2-0.2v-1.5
	c0-0.1,0.1-0.2,0.2-0.2c1-0.1,1.8-0.5,2.5-1.2s1-1.6,1-2.5c0-1-0.4-1.9-1.1-2.6s-1.6-1.1-2.6-1.1h-1.9c-0.1,0-0.2-0.1-0.2-0.2
	l-0.1-0.7c-0.1-0.8-0.3-1.5-0.8-2.2c-0.5-0.7-1-1.2-1.7-1.5S12,2.4,11.2,2.4c-1.3,0-2.3,0.4-3.3,1.2S6.5,5.5,6.4,6.8L6.3,7.4
	c0,0.1-0.1,0.2-0.2,0.2L5.5,7.6c-1,0.1-1.8,0.5-2.4,1.2s-1,1.5-1,2.5c0,1,0.3,1.8,1,2.6S4.6,15,5.6,15c0.1,0,0.2,0.1,0.2,0.2v1.5
	c0,0.1-0.1,0.2-0.2,0.2c-0.7,0-1.5-0.2-2.1-0.5c-0.7-0.3-1.3-0.7-1.7-1.2c-0.5-0.5-0.9-1.1-1.2-1.8C0.3,12.8,0.1,12.1,0.1,11.3
	L0.1,11.3z M6.3,19c0,0,0-0.1,0-0.1s0-0.1,0-0.1l0.3-1.2c0.1-0.3,0.2-0.5,0.5-0.6c0.2-0.1,0.5-0.2,0.7-0.1c0.3,0.1,0.5,0.2,0.6,0.5
	c0.1,0.2,0.2,0.5,0.1,0.7l-0.3,1.2C8.1,19.7,7.8,20,7.4,20c0,0-0.1,0-0.1,0c0,0-0.1,0-0.1,0c0,0-0.1,0-0.1,0
	c-0.2-0.1-0.4-0.2-0.5-0.4C6.4,19.4,6.3,19.2,6.3,19L6.3,19z M7.8,13.5c0,0,0-0.1,0-0.1s0-0.1,0-0.1l0.3-1.2
	c0.1-0.2,0.2-0.4,0.4-0.5c0.2-0.1,0.3-0.2,0.5-0.2c0,0,0.1,0,0.1,0c0,0,0.1,0,0.1,0c0,0,0.1,0,0.1,0c0.3,0.1,0.5,0.2,0.6,0.5
	c0.1,0.2,0.2,0.5,0.1,0.7l-0.3,1.1c-0.1,0.3-0.2,0.5-0.5,0.7c-0.2,0.1-0.5,0.1-0.7,0c-0.2-0.1-0.4-0.2-0.6-0.4
	C7.9,13.9,7.8,13.7,7.8,13.5L7.8,13.5z M9.2,22.6c0,0,0-0.1,0-0.1c0-0.1,0-0.1,0-0.1l0.3-1.1c0.1-0.3,0.2-0.5,0.5-0.6
	c0.2-0.1,0.5-0.2,0.7-0.1c0.3,0.1,0.4,0.2,0.6,0.5c0.1,0.2,0.2,0.5,0.1,0.7l-0.3,1.2c-0.1,0.5-0.4,0.7-0.9,0.7c-0.1,0-0.1,0-0.3,0
	c-0.2,0-0.4-0.2-0.6-0.3S9.2,22.8,9.2,22.6L9.2,22.6z M10.8,17.2c0-0.1,0-0.2,0-0.3l0.3-1.2c0.1-0.3,0.2-0.5,0.5-0.6
	c0.2-0.1,0.5-0.2,0.7-0.1c0.3,0.1,0.4,0.2,0.6,0.4c0.1,0.2,0.2,0.5,0.1,0.7l-0.3,1.1c-0.1,0.5-0.4,0.8-0.8,0.8c-0.1,0-0.2,0-0.4-0.1
	c-0.2-0.1-0.4-0.2-0.6-0.3C10.8,17.5,10.8,17.4,10.8,17.2L10.8,17.2z M14,19.1c0-0.1,0-0.2,0-0.3l0.3-1.1c0.1-0.3,0.2-0.5,0.5-0.6
	s0.5-0.2,0.7-0.1c0.3,0.1,0.5,0.2,0.6,0.5c0.1,0.2,0.2,0.5,0.1,0.7l-0.3,1.2C15.8,19.8,15.5,20,15,20c-0.1,0-0.2,0-0.3,0
	c-0.2,0-0.4-0.2-0.5-0.3C14,19.5,14,19.3,14,19.1L14,19.1z M15.5,13.6c0,0,0-0.1,0.1-0.3l0.3-1.2c0-0.2,0.2-0.4,0.3-0.5
	c0.2-0.1,0.4-0.2,0.6-0.2c0.1,0,0.1,0,0.3,0c0.2,0.1,0.4,0.2,0.6,0.4c0.1,0.2,0.2,0.4,0.1,0.7l-0.3,1.2c-0.1,0.5-0.4,0.7-0.9,0.7
	c-0.1,0-0.2,0-0.4-0.1c-0.2-0.1-0.4-0.2-0.5-0.4S15.5,13.8,15.5,13.6L15.5,13.6z"/>
</svg>
