<?xml version="1.0" encoding="utf-8"?>
<!-- Generator: Adobe Illustrator 19.2.0, SVG Export Plug-In . SVG Version: 6.00 Build 0)  -->
<svg version="1.1" id="Layer_1" xmlns="http://www.w3.org/2000/svg" xmlns:xlink="http://www.w3.org/1999/xlink" x="0px" y="0px"
	 viewBox="0 0 24 24" style="enable-background:new 0 0 24 24;" xml:space="preserve">
<path d="M1.2,10.1c0-1.2,0.4-2.3,1.1-3.2S4,5.3,5.2,5.1c0.3-1.4,1.1-2.6,2.2-3.5s2.4-1.4,3.9-1.4c1.4,0,2.7,0.4,3.8,1.3
	s1.9,2,2.2,3.4h0.3c1.4,0,2.6,0.5,3.7,1.5c1,1,1.5,2.2,1.5,3.6c0,0.8-0.2,1.5-0.5,2.2C22,12.9,21.6,13.5,21,14v0
	c0,0.8-0.2,1.4-0.7,2c-0.5,0.6-1.1,1-1.8,1.1c-0.2,0.8-0.6,1.5-1.2,2c-0.6,0.5-1.3,0.9-2.1,1c0.4,0.4,0.5,0.9,0.5,1.4
	c0,0.6-0.2,1.1-0.6,1.6c-0.4,0.4-1,0.7-1.6,0.7c-0.6,0-1.1-0.2-1.6-0.7c-0.4-0.4-0.6-1-0.6-1.6c0-0.2,0-0.5,0.1-0.7h-0.1
	c-0.7,0-1.4-0.3-1.9-0.8s-0.8-1.2-0.8-1.9c0-0.5,0.1-1,0.4-1.4c-0.7-0.4-1.1-0.9-1.4-1.6H6.1v0c-1.4-0.1-2.5-0.6-3.5-1.6
	S1.2,11.4,1.2,10.1L1.2,10.1z M3,9.7c0,1,0.4,1.9,1.1,2.6c0.7,0.7,1.6,1.1,2.6,1.1c0.6,0,1.2-0.1,1.7-0.4c0.2,0.9,0.6,1.7,1.3,2.4
	c0.7,0.6,1.6,0.9,2.6,0.9c1.1,0,2-0.4,2.8-1.2c0.5,0.6,1.2,0.9,2,0.9c0.7,0,1.3-0.3,1.9-0.8c0.5-0.5,0.8-1.1,0.8-1.9
	c0.5-0.3,0.9-0.8,1.2-1.3c0.3-0.5,0.4-1.1,0.4-1.7c0-1-0.4-1.9-1.1-2.6s-1.6-1.1-2.6-1.1c-0.7,0-1.4,0.2-1.9,0.6
	c0.1-0.3,0.1-0.6,0.1-1c0-1.2-0.4-2.3-1.3-3.1c-0.9-0.9-1.9-1.3-3.2-1.3c-1.2,0-2.2,0.4-3.1,1.2c-0.9,0.8-1.3,1.8-1.4,3
	c0,0-0.1,0-0.1,0c0,0-0.1,0-0.1,0c-1,0-1.9,0.4-2.6,1.1S3,8.7,3,9.7L3,9.7z"/>
</svg>
