<?xml version="1.0" encoding="utf-8"?>
<!-- Generator: Adobe Illustrator 19.2.0, SVG Export Plug-In . SVG Version: 6.00 Build 0)  -->
<svg version="1.1" id="Layer_1" xmlns="http://www.w3.org/2000/svg" xmlns:xlink="http://www.w3.org/1999/xlink" x="0px" y="0px"
	 viewBox="0 0 24 24" style="enable-background:new 0 0 24 24;" xml:space="preserve">
<path d="M0.2,11.4c0-1.3,0.4-2.5,1.2-3.5s1.9-1.7,3.1-2c0.4-1.6,1.2-2.8,2.4-3.8s2.7-1.5,4.3-1.5c1.6,0,3,0.5,4.2,1.5
	c1.2,1,2,2.2,2.4,3.8h0.4c1,0,2,0.3,2.8,0.8s1.6,1.2,2.1,2.1c0.5,0.9,0.8,1.8,0.8,2.8c0,1.5-0.5,2.8-1.6,3.9
	c-1.1,1.1-2.3,1.7-3.9,1.7c-0.1,0-0.2-0.1-0.2-0.2v-1.5c0-0.1,0.1-0.2,0.2-0.2c1-0.1,1.8-0.4,2.5-1.2c0.7-0.7,1-1.6,1-2.5
	c0-1-0.4-1.9-1.1-2.6s-1.6-1.1-2.6-1.1h-1.8c-0.1,0-0.2-0.1-0.2-0.2l-0.1-0.7c-0.1-1.2-0.7-2.3-1.6-3.1s-2-1.3-3.3-1.3
	C10,2.5,8.9,2.9,8,3.8S6.5,5.6,6.4,6.9L6.3,7.5c0,0.1-0.1,0.2-0.2,0.2L5.5,7.8c-1,0.1-1.8,0.5-2.4,1.2s-1,1.5-1,2.5
	c0,1,0.3,1.8,1,2.5c0.7,0.7,1.5,1.1,2.5,1.2c0.1,0,0.2,0.1,0.2,0.2v1.5c0,0.1-0.1,0.2-0.2,0.2c-1.5-0.1-2.8-0.6-3.9-1.7
	C0.7,14.3,0.2,13,0.2,11.4L0.2,11.4z M6.5,20.2c0-0.3,0.1-0.5,0.3-0.7c0.2-0.2,0.4-0.3,0.7-0.3c0.3,0,0.5,0.1,0.7,0.3
	c0.2,0.2,0.3,0.4,0.3,0.7c0,0.3-0.1,0.5-0.3,0.7c-0.2,0.2-0.4,0.3-0.7,0.3c-0.3,0-0.5-0.1-0.7-0.3C6.6,20.7,6.5,20.5,6.5,20.2z
	 M7.5,16.1c0-0.3,0.1-0.5,0.3-0.7c0.2-0.2,0.4-0.3,0.7-0.3c0.3,0,0.5,0.1,0.7,0.3c0.2,0.2,0.3,0.4,0.3,0.7c0,0.3-0.1,0.5-0.3,0.7
	c-0.2,0.2-0.4,0.3-0.7,0.3c-0.3,0-0.5-0.1-0.7-0.3C7.6,16.6,7.5,16.4,7.5,16.1z M9.6,22.5c0-0.3,0.1-0.5,0.3-0.7
	c0.2-0.2,0.4-0.3,0.7-0.3c0.3,0,0.5,0.1,0.7,0.3c0.2,0.2,0.3,0.4,0.3,0.7s-0.1,0.5-0.3,0.7c-0.2,0.2-0.4,0.3-0.7,0.3
	c-0.3,0-0.5-0.1-0.7-0.3C9.7,23,9.6,22.8,9.6,22.5L9.6,22.5z M10.6,18.3c0-0.3,0.1-0.5,0.3-0.7c0.2-0.2,0.4-0.3,0.7-0.3
	c0.3,0,0.5,0.1,0.7,0.3c0.2,0.2,0.3,0.4,0.3,0.7c0,0.3-0.1,0.5-0.3,0.7s-0.4,0.3-0.7,0.3c-0.3,0-0.5-0.1-0.7-0.3
	C10.7,18.8,10.6,18.6,10.6,18.3z M11.1,14.2c0-0.3,0.1-0.5,0.3-0.7c0.2-0.2,0.4-0.3,0.7-0.3c0.3,0,0.5,0.1,0.7,0.3
	c0.2,0.2,0.3,0.4,0.3,0.7c0,0.3-0.1,0.5-0.3,0.7s-0.4,0.3-0.7,0.3c-0.3,0-0.5-0.1-0.7-0.3S11.1,14.4,11.1,14.2z M13.8,20.2
	c0-0.3,0.1-0.5,0.3-0.7c0.2-0.2,0.4-0.3,0.7-0.3c0.3,0,0.5,0.1,0.7,0.3c0.2,0.2,0.3,0.4,0.3,0.7c0,0.3-0.1,0.5-0.3,0.7
	c-0.2,0.2-0.4,0.3-0.7,0.3c-0.3,0-0.5-0.1-0.7-0.3C13.9,20.7,13.8,20.5,13.8,20.2L13.8,20.2z M14.8,16.1c0-0.3,0.1-0.5,0.3-0.7
	s0.4-0.3,0.7-0.3s0.5,0.1,0.7,0.3c0.2,0.2,0.3,0.4,0.3,0.7c0,0.3-0.1,0.5-0.3,0.7c-0.2,0.2-0.4,0.3-0.7,0.3c-0.3,0-0.5-0.1-0.7-0.3
	C14.9,16.6,14.8,16.4,14.8,16.1L14.8,16.1z"/>
</svg>
