<?xml version="1.0" encoding="utf-8"?>
<!-- Generator: Adobe Illustrator 19.2.0, SVG Export Plug-In . SVG Version: 6.00 Build 0)  -->
<svg version="1.1" id="Layer_1" xmlns="http://www.w3.org/2000/svg" xmlns:xlink="http://www.w3.org/1999/xlink" x="0px" y="0px"
	 viewBox="0 0 24 24" style="enable-background:new 0 0 24 24;" xml:space="preserve">
<path d="M0.2,12c0-0.3,0.1-0.6,0.3-0.8c0.2-0.2,0.5-0.3,0.7-0.3c0.3,0,0.6,0.1,0.8,0.3c0.2,0.2,0.3,0.5,0.3,0.8
	c0,0.3-0.1,0.5-0.3,0.7c-0.2,0.2-0.5,0.3-0.8,0.3S0.7,13,0.5,12.8C0.3,12.6,0.2,12.3,0.2,12z M3.3,12c0-0.3,0.1-0.6,0.3-0.8
	C3.8,11,4,10.9,4.3,10.9h5.1L5.8,7.3C5.6,7.2,5.5,6.9,5.5,6.6c0-0.3,0.1-0.6,0.3-0.8C6,5.6,6.3,5.5,6.6,5.5s0.5,0.1,0.8,0.3l3.6,3.6
	v-5c0-0.3,0.1-0.6,0.3-0.8c0.2-0.2,0.5-0.3,0.8-0.3c0.3,0,0.5,0.1,0.7,0.3c0.2,0.2,0.3,0.5,0.3,0.8v5.1l3.6-3.6
	c0.2-0.2,0.5-0.3,0.8-0.3c0.3,0,0.5,0.1,0.8,0.3c0.2,0.2,0.3,0.5,0.3,0.8s-0.1,0.5-0.3,0.7l-3.6,3.6h5.1c0.3,0,0.5,0.1,0.7,0.3
	c0.2,0.2,0.3,0.5,0.3,0.8c0,0.3-0.1,0.5-0.3,0.7c-0.2,0.2-0.5,0.3-0.7,0.3h-5.1l3.6,3.6c0.2,0.2,0.3,0.4,0.3,0.7
	c0,0.3-0.1,0.5-0.3,0.8c-0.2,0.2-0.5,0.3-0.8,0.3c-0.3,0-0.5-0.1-0.8-0.3l-3.6-3.6v5.1c0,0.3-0.1,0.6-0.3,0.8s-0.5,0.3-0.7,0.3
	c-0.3,0-0.6-0.1-0.8-0.3c-0.2-0.2-0.3-0.5-0.3-0.8v-5l-3.6,3.6c-0.2,0.2-0.5,0.3-0.8,0.3c-0.3,0-0.5-0.1-0.8-0.3
	c-0.2-0.2-0.3-0.5-0.3-0.8c0-0.3,0.1-0.5,0.3-0.7l3.6-3.6H4.3c-0.3,0-0.5-0.1-0.7-0.3C3.4,12.6,3.3,12.3,3.3,12L3.3,12z M3.3,19.6
	c0-0.3,0.1-0.5,0.3-0.8c0.2-0.2,0.4-0.3,0.7-0.3s0.6,0.1,0.8,0.3c0.2,0.2,0.3,0.5,0.3,0.8s-0.1,0.5-0.3,0.8
	c-0.2,0.2-0.5,0.3-0.8,0.3s-0.5-0.1-0.7-0.3C3.4,20.2,3.3,19.9,3.3,19.6z M3.3,4.4c0-0.3,0.1-0.5,0.3-0.8c0.2-0.2,0.4-0.3,0.7-0.3
	s0.6,0.1,0.8,0.3s0.3,0.5,0.3,0.8c0,0.3-0.1,0.5-0.3,0.8C4.9,5.4,4.7,5.5,4.4,5.5c-0.3,0-0.5-0.1-0.7-0.3C3.4,4.9,3.3,4.7,3.3,4.4z
	 M10.9,22.8c0-0.3,0.1-0.5,0.3-0.7c0.2-0.2,0.5-0.3,0.8-0.3c0.3,0,0.5,0.1,0.7,0.3s0.3,0.5,0.3,0.7c0,0.3-0.1,0.6-0.3,0.8
	c-0.2,0.2-0.5,0.3-0.7,0.3c-0.3,0-0.6-0.1-0.8-0.3C11,23.3,10.9,23.1,10.9,22.8z M10.9,1.2c0-0.3,0.1-0.6,0.3-0.8
	c0.2-0.2,0.5-0.3,0.8-0.3c0.3,0,0.5,0.1,0.7,0.3c0.2,0.2,0.3,0.5,0.3,0.8c0,0.3-0.1,0.5-0.3,0.7c-0.2,0.2-0.5,0.3-0.7,0.3
	c-0.3,0-0.6-0.1-0.8-0.3C11,1.8,10.9,1.5,10.9,1.2z M18.5,19.6c0-0.3,0.1-0.5,0.3-0.8c0.2-0.2,0.4-0.3,0.7-0.3
	c0.3,0,0.6,0.1,0.8,0.3c0.2,0.2,0.3,0.5,0.3,0.8c0,0.3-0.1,0.5-0.3,0.8c-0.2,0.2-0.5,0.3-0.8,0.3s-0.5-0.1-0.7-0.3
	C18.6,20.2,18.5,19.9,18.5,19.6z M18.5,4.4c0-0.3,0.1-0.5,0.3-0.8c0.2-0.2,0.4-0.3,0.7-0.3c0.3,0,0.6,0.1,0.8,0.3
	c0.2,0.2,0.3,0.5,0.3,0.8c0,0.3-0.1,0.5-0.3,0.8c-0.2,0.2-0.5,0.3-0.8,0.3c-0.3,0-0.5-0.1-0.7-0.3C18.6,4.9,18.5,4.7,18.5,4.4z
	 M21.7,12c0-0.3,0.1-0.6,0.3-0.8c0.2-0.2,0.5-0.3,0.8-0.3c0.3,0,0.5,0.1,0.7,0.3c0.2,0.2,0.3,0.5,0.3,0.8c0,0.3-0.1,0.5-0.3,0.7
	c-0.2,0.2-0.5,0.3-0.7,0.3c-0.3,0-0.6-0.1-0.8-0.3C21.8,12.6,21.7,12.3,21.7,12z"/>
</svg>
