<?xml version="1.0" encoding="utf-8"?>
<!-- Generated by IcoMoon.io -->
<!DOCTYPE svg PUBLIC "-//W3C//DTD SVG 1.1//EN" "http://www.w3.org/Graphics/SVG/1.1/DTD/svg11.dtd">
<svg version="1.1" xmlns="http://www.w3.org/2000/svg" xmlns:xlink="http://www.w3.org/1999/xlink" width="24" height="24" viewBox="0 0 24 24">
<path d="M-0 14.999q1.218-0.059 2.062-0.943t0.843-2.103q0 1.218 0.843 2.103t2.062 0.943q-1.218 0.059-2.062 0.943t-0.843 2.103q0-1.218-0.843-2.103t-2.062-0.943zM2.905 6.003q2.366-0.117 4.012-1.833t1.646-4.094q0 2.378 1.652 4.094t4.018 1.833q-1.558 0.070-2.858 0.884t-2.056 2.155-0.756 2.911q0-2.389-1.646-4.111t-4.012-1.839zM7.051 19.461q1.78-0.082 3.022-1.376t1.242-3.086q0 1.792 1.236 3.086t3.016 1.376q-1.78 0.082-3.016 1.376t-1.236 3.086q0-1.792-1.242-3.086t-3.022-1.376zM15.567 13.534q1.78-0.082 3.010-1.37t1.23-3.092q0 1.792 1.242 3.086t3.022 1.376q-1.78 0.082-3.022 1.37t-1.242 3.081q0-1.792-1.23-3.081t-3.010-1.37z"></path>
</svg>
