<?xml version="1.0" encoding="utf-8"?>
<!-- Generator: Adobe Illustrator 19.2.0, SVG Export Plug-In . SVG Version: 6.00 Build 0)  -->
<svg version="1.1" id="Layer_1" xmlns="http://www.w3.org/2000/svg" xmlns:xlink="http://www.w3.org/1999/xlink" x="0px" y="0px"
	 viewBox="0 0 24 24" style="enable-background:new 0 0 24 24;" xml:space="preserve">
<path d="M0.2,13.7c0,0.3,0.1,0.5,0.3,0.6c0.2,0.2,0.4,0.3,0.6,0.3h14.5c0.3,0,0.5,0.1,0.7,0.3c0.2,0.2,0.3,0.5,0.3,0.8
	c0,0.3-0.1,0.6-0.3,0.7c-0.2,0.2-0.4,0.3-0.7,0.3s-0.5-0.1-0.7-0.3c-0.2-0.2-0.4-0.3-0.6-0.3c-0.2,0-0.5,0.1-0.6,0.3
	s-0.3,0.4-0.3,0.6c0,0.3,0.1,0.5,0.3,0.7c0.6,0.6,1.2,0.9,1.9,0.9c0.8,0,1.4-0.3,2-0.8c0.5-0.6,0.8-1.2,0.8-2.1
	c0-0.8-0.3-1.5-0.8-2.1c-0.6-0.6-1.2-0.9-2-0.9H1.1c-0.2,0-0.5,0.1-0.6,0.3S0.2,13.5,0.2,13.7L0.2,13.7z M0.2,10.3
	c0,0.2,0.1,0.5,0.3,0.6c0.2,0.2,0.4,0.3,0.6,0.3h19.8c0.8,0,1.4-0.3,2-0.9s0.8-1.3,0.8-2.1c0-0.8-0.3-1.5-0.8-2.1
	c-0.6-0.6-1.2-0.9-2-0.9c-0.8,0-1.4,0.3-1.9,0.8c-0.2,0.2-0.3,0.4-0.3,0.7c0,0.3,0.1,0.5,0.3,0.7c0.2,0.2,0.4,0.3,0.6,0.3
	c0.2,0,0.4-0.1,0.6-0.3c0.2-0.2,0.4-0.3,0.7-0.3c0.3,0,0.5,0.1,0.7,0.3S22,8,21.9,8.3c0,0.3-0.1,0.6-0.3,0.8
	c-0.2,0.2-0.4,0.3-0.7,0.3H1.1c-0.2,0-0.5,0.1-0.6,0.3S0.2,10,0.2,10.3L0.2,10.3z"/>
</svg>
