<?xml version="1.0" encoding="utf-8"?>
<!-- Generator: Adobe Illustrator 19.2.0, SVG Export Plug-In . SVG Version: 6.00 Build 0)  -->
<svg version="1.1" id="Layer_1" xmlns="http://www.w3.org/2000/svg" xmlns:xlink="http://www.w3.org/1999/xlink" x="0px" y="0px"
	 viewBox="0 0 24 24" style="enable-background:new 0 0 24 24;" xml:space="preserve">
<path d="M0.3,11.2c0,1.3,0.4,2.4,1.1,3.4s1.7,1.7,2.9,2l-0.7,1.9c0,0.2,0,0.2,0.2,0.2h2.4L5,23.7h0.3l4.4-6.6c0,0,0-0.1,0-0.2
	c0-0.1-0.1-0.1-0.2-0.1H7.2l2.8-5.3c0.1-0.2,0-0.2-0.2-0.2H6.5c-0.1,0-0.2,0.1-0.3,0.2L5,14.8c-0.8-0.2-1.5-0.6-2-1.3
	S2.2,12,2.2,11.2c0-0.9,0.3-1.8,1-2.5C3.8,8,4.6,7.6,5.6,7.5l0.6-0.1c0.1,0,0.2-0.1,0.2-0.2l0.1-0.6C6.6,5.4,7.1,4.3,8,3.5
	s2-1.3,3.2-1.3c1.2,0,2.3,0.4,3.2,1.3c0.9,0.8,1.4,1.9,1.6,3.1l0.1,0.7c0,0.1,0.1,0.2,0.2,0.2h1.8c1,0,1.9,0.4,2.6,1.1
	c0.7,0.7,1.1,1.6,1.1,2.6c0,1-0.3,1.8-1,2.5c-0.7,0.7-1.5,1.1-2.5,1.2c-0.1,0-0.2,0.1-0.2,0.2v1.6c0,0.1,0.1,0.2,0.2,0.2
	c1.5,0,2.8-0.6,3.8-1.7c1-1.1,1.6-2.4,1.6-3.9c0-1-0.2-2-0.7-2.8c-0.5-0.9-1.2-1.6-2-2.1s-1.8-0.8-2.8-0.8h-0.3
	c-0.4-1.5-1.2-2.8-2.4-3.7s-2.6-1.4-4.1-1.4c-1.6,0-3,0.5-4.2,1.5S5,4.1,4.6,5.7c-1.2,0.3-2.3,1-3.1,2S0.3,9.8,0.3,11.2L0.3,11.2z
	 M9.5,22.2c0,0.4,0.2,0.7,0.7,0.9c0,0,0.1,0,0.1,0c0.1,0,0.1,0,0.2,0c0.2,0,0.4-0.1,0.6-0.2c0.2-0.1,0.3-0.3,0.4-0.6l2.5-9.9
	c0.1-0.3,0-0.5-0.1-0.7c-0.1-0.2-0.3-0.4-0.6-0.4c-0.2,0-0.3,0-0.3,0c-0.2,0-0.4,0.1-0.5,0.2c-0.2,0.1-0.3,0.3-0.4,0.5l-2.5,9.9
	C9.5,22,9.5,22.1,9.5,22.2L9.5,22.2z M14.2,18.7c0,0.2,0,0.3,0.1,0.4c0.2,0.2,0.3,0.4,0.6,0.5c0.1,0,0.2,0.1,0.3,0.1
	c0.1,0,0.2,0,0.4-0.1c0.2-0.1,0.4-0.3,0.5-0.7l1.6-6.5c0-0.2,0.1-0.3,0.1-0.3c0-0.2-0.1-0.3-0.2-0.5c-0.1-0.2-0.3-0.3-0.5-0.4
	c-0.2,0-0.3,0-0.3,0c-0.2,0-0.4,0.1-0.5,0.2c-0.2,0.1-0.3,0.3-0.3,0.5l-1.6,6.5c0,0,0,0.1,0,0.1C14.2,18.7,14.2,18.7,14.2,18.7
	L14.2,18.7z"/>
</svg>
