<?xml version="1.0" encoding="utf-8"?>
<!-- Generator: Adobe Illustrator 19.2.0, SVG Export Plug-In . SVG Version: 6.00 Build 0)  -->
<svg version="1.1" id="Layer_1" xmlns="http://www.w3.org/2000/svg" xmlns:xlink="http://www.w3.org/1999/xlink" x="0px" y="0px"
	 viewBox="0 0 24 24" style="enable-background:new 0 0 24 24;" xml:space="preserve">
<path d="M0.8,12.9c0,0.7,0.4,1.3,1.1,1.8c1.4,1,3.4,1.4,6.1,1.4c1.2,0,2.4-0.1,3.4-0.3c1.1-0.2,2-0.6,2.7-1.1
	c0.7-0.5,1.1-1.1,1.1-1.8c0-0.2,0-0.4-0.1-0.6c1.4-0.4,2.5-0.8,3.4-1.4c0.8-0.6,1.2-1.3,1.2-2.1c0-0.2,0-0.4-0.1-0.6
	c2.3-0.8,3.5-2,3.5-3.4c0-0.9-0.5-1.7-1.5-2.4c-2-1.3-4.9-2-8.8-2c-1.8,0-3.5,0.2-5,0.5C6.3,1.2,5,1.7,4,2.4C3,3.1,2.5,3.9,2.5,4.8
	c0,0.5,0.2,1,0.5,1.5C1.8,7,1.2,7.8,1.2,8.8c0,0.8,0.4,1.4,1.1,2C1.3,11.4,0.8,12.1,0.8,12.9z M1.4,17.5c0,0.8,0.5,1.3,1.4,1.8
	c0.9,0.4,2.1,0.6,3.5,0.6c1.4,0,2.6-0.2,3.5-0.6c0.9-0.4,1.4-1,1.4-1.8c0-0.3-0.1-0.5-0.3-0.7s-0.4-0.3-0.7-0.3
	c-0.2,0-0.4,0.1-0.6,0.2c-0.2,0.2-0.3,0.4-0.3,0.6c-0.2,0.2-0.6,0.3-1.1,0.4C7.7,17.9,7,18,6.3,18c-1.1,0-2.1-0.2-2.8-0.5
	c0.2-0.2,0.2-0.4,0.3-0.6c0-0.3,0-0.5-0.2-0.6c-0.2-0.2-0.4-0.4-0.6-0.4c-0.3,0-0.5,0-0.7,0.1C1.7,16.4,1.4,16.9,1.4,17.5L1.4,17.5z
	 M2.8,12.9c0,0,0.1-0.1,0.2-0.2c0.1-0.1,0.3-0.2,0.6-0.3s0.6-0.3,1-0.4L4.6,12c1.7,0.6,3.6,0.8,5.8,0.8c1,0,1.9-0.1,2.6-0.2l0.3,0.2
	c-0.1,0.2-0.3,0.3-0.6,0.5c-0.4,0.2-1,0.4-1.9,0.6S9,14.2,8.1,14.2c-1,0-1.9-0.1-2.7-0.3s-1.5-0.4-1.9-0.6
	C3.1,13.2,2.8,13.1,2.8,12.9z M2.9,21.6c0,0.7,0.4,1.2,1.1,1.5s1.7,0.5,2.7,0.5c1.1,0,2-0.2,2.8-0.5c0.8-0.4,1.1-0.9,1.1-1.5
	c0-0.3-0.1-0.5-0.3-0.7c-0.2-0.2-0.4-0.3-0.7-0.3c-0.5,0-0.8,0.2-0.9,0.7c-0.4,0.3-1.1,0.4-2,0.4c-0.8,0-1.5-0.1-2-0.4
	c-0.2-0.5-0.5-0.7-0.9-0.7c-0.3,0-0.5,0.1-0.7,0.3C3,21.1,2.9,21.3,2.9,21.6L2.9,21.6z M3.1,8.8c0-0.1,0.1-0.2,0.2-0.3
	C3.5,8.2,4,7.9,4.7,7.6c2,1.1,4.7,1.6,8.1,1.6c1.8,0,3.4-0.2,5-0.5v0.1c0,0.2-0.1,0.3-0.3,0.5c-0.4,0.4-1.2,0.7-2.3,1.1
	c-1.2,0.4-2.8,0.6-4.7,0.6c-1.9,0-3.5-0.2-4.7-0.6c-1.2-0.3-2-0.7-2.4-1.1C3.2,9.1,3.1,9,3.1,8.8L3.1,8.8z M4.4,4.8
	c0-0.2,0.1-0.4,0.4-0.6C5.2,3.8,6.2,3.4,7.5,3c1.5-0.4,3.2-0.6,5.3-0.6c2.1,0,3.8,0.2,5.3,0.6c1.4,0.4,2.3,0.8,2.8,1.2
	c0.2,0.2,0.3,0.4,0.3,0.6s-0.1,0.4-0.3,0.6c-0.5,0.4-1.4,0.9-2.8,1.3c-1.5,0.4-3.3,0.6-5.3,0.6c-2.1,0-3.8-0.2-5.3-0.6
	C6.2,6.2,5.2,5.8,4.8,5.4C4.5,5.2,4.4,5,4.4,4.8z"/>
</svg>
