<?xml version="1.0" encoding="utf-8"?>
<!-- Generator: Adobe Illustrator 19.2.0, SVG Export Plug-In . SVG Version: 6.00 Build 0)  -->
<svg version="1.1" id="Layer_1" xmlns="http://www.w3.org/2000/svg" xmlns:xlink="http://www.w3.org/1999/xlink" x="0px" y="0px"
	 viewBox="0 0 24 24" style="enable-background:new 0 0 24 24;" xml:space="preserve">
<path d="M0.2,12.4c0-0.3,0.1-0.5,0.3-0.6c0.2-0.2,0.4-0.3,0.7-0.3h13.8c0.2,0,0.5,0.1,0.6,0.3s0.2,0.4,0.2,0.6
	c0,0.2-0.1,0.5-0.2,0.6s-0.4,0.2-0.6,0.2H1.1c-0.3,0-0.5-0.1-0.7-0.2S0.2,12.7,0.2,12.4L0.2,12.4z M3,9.1c0-0.2,0.1-0.5,0.3-0.6
	c0.2-0.2,0.4-0.3,0.6-0.3h13.8c0.2,0,0.4,0.1,0.6,0.3s0.3,0.4,0.3,0.6s-0.1,0.5-0.3,0.6C18.1,10,17.9,10,17.6,10H3.9
	C3.6,10,3.4,10,3.2,9.8S3,9.4,3,9.1z M4.8,15.7c0-0.2,0.1-0.4,0.3-0.6c0.2-0.2,0.4-0.2,0.6-0.2h13.8c0.3,0,0.5,0.1,0.6,0.2
	s0.3,0.4,0.3,0.6c0,0.2-0.1,0.5-0.3,0.6c-0.2,0.2-0.4,0.3-0.6,0.3H5.7c-0.2,0-0.5-0.1-0.6-0.3C4.9,16.1,4.8,15.9,4.8,15.7L4.8,15.7z
	 M16.8,12.4c0-0.3,0.1-0.5,0.3-0.6c0.2-0.2,0.4-0.3,0.6-0.3h5.1c0.3,0,0.5,0.1,0.6,0.3c0.2,0.2,0.3,0.4,0.3,0.6
	c0,0.2-0.1,0.5-0.3,0.6s-0.4,0.2-0.6,0.2h-5.1c-0.3,0-0.5-0.1-0.6-0.2S16.9,12.7,16.8,12.4L16.8,12.4z"/>
</svg>
